<?xml version="1.0" encoding="UTF-8"?>
<svg xmlns="http://www.w3.org/2000/svg"
     viewBox="0 0 328.0 328.0"
     width="328.0" height="328.0"
     role="img" aria-labelledby="title description">
  <title id="title">polygon-074b9c863c, genus 1, all-disk ruling 0x276b5d6</title>
  <desc id="description">Newton polygon vertices [[0, 2], [1, 0], [5, 0], [1, 2]]; 8 disk eyes and 16 switches.</desc>
  <metadata>{&quot;polygon_id&quot;:&quot;polygon-074b9c863c&quot;,&quot;vertices&quot;:[[0,2],[1,0],[5,0],[1,2]],&quot;genus&quot;:1,&quot;sector&quot;:&quot;all-disk&quot;,&quot;mask&quot;:&quot;0x276b5d6&quot;,&quot;disk_eyes&quot;:8,&quot;annular_eyes&quot;:0,&quot;switches&quot;:16,&quot;switch_profile&quot;:{&quot;A&quot;:5,&quot;B&quot;:3,&quot;V&quot;:8},&quot;sl2z&quot;:[[1,0],[0,1]],&quot;uses_tropical_count&quot;:false,&quot;coordinate_model&quot;:&quot;fixed count-frame fundamental square shared by every ruling of this polygon&quot;}</metadata>
  <style>
    svg {
      --card: #ffffff;
      --foreground: #111827;
      --viz-series-1: #2563eb;
      --viz-series-2: #ef4444;
      --viz-series-3: #16a34a;
    }
    .o4-diagram-bg { fill: var(--card); }
  </style>
<defs><clipPath id="one-polygon-074b9c863c-1-276b5d6"><rect x="14.0" y="14.0" width="300.0" height="300.0"/></clipPath><clipPath id="one-polygon-074b9c863c-1-276b5d6-boundary"><rect x="12.8" y="12.8" width="302.4" height="302.4"/></clipPath></defs>
<rect class="o4-diagram-bg" x="0" y="0" width="328.0" height="328.0"/>
<g clip-path="url(#one-polygon-074b9c863c-1-276b5d6)">
<polygon points="160.58,225.10 86.25,187.93 104.83,225.10" style="fill:var(--viz-series-1);fill-opacity:.30;stroke:none"/>
<polygon points="-45.17,225.10 -78.02,159.39 -228.02,159.39 -269.05,77.33 -419.05,77.33 -422.17,71.09 -438.53,71.09 -426.04,77.33 -416.72,81.99 -261.92,159.39 -216.72,181.99 -130.50,225.10 -129.90,225.40 -45.02,225.40 104.98,225.40 104.83,225.10" style="fill:var(--viz-series-2);fill-opacity:.30;stroke:none"/>
<polygon points="254.83,225.10 221.98,159.39 71.98,159.39 30.95,77.33 -119.05,77.33 -122.17,71.09 -138.53,71.09 -126.04,77.33 -116.72,81.99 38.08,159.39 83.28,181.99 169.50,225.10 170.10,225.40 254.98,225.40 404.98,225.40 404.83,225.10" style="fill:var(--viz-series-2);fill-opacity:.30;stroke:none"/>
<polygon points="554.83,225.10 521.98,159.39 371.98,159.39 330.95,77.33 180.95,77.33 177.83,71.09 161.47,71.09 173.96,77.33 183.28,81.99 338.08,159.39 383.28,181.99 469.50,225.10 470.10,225.40 554.98,225.40 704.98,225.40 704.83,225.10" style="fill:var(--viz-series-2);fill-opacity:.30;stroke:none"/>
<polygon points="169.50,225.10 160.58,225.10 161.18,225.40 286.25,287.93 283.28,281.99 254.98,225.40 254.83,225.10" style="fill:var(--viz-series-2);fill-opacity:.30;stroke:none"/>
<polygon points="152.55,371.09 161.47,371.09 -16.72,281.99 -129.90,225.40 -138.82,225.40 -195.02,225.40 -122.17,371.09 27.83,371.09" style="fill:var(--viz-series-1);fill-opacity:.30;stroke:none"/>
<polygon points="152.55,71.09 161.47,71.09 -16.72,-18.01 -129.90,-74.60 -138.82,-74.60 -195.02,-74.60 -122.17,71.09 27.83,71.09" style="fill:var(--viz-series-1);fill-opacity:.30;stroke:none"/>
<polygon points="452.55,371.09 461.47,371.09 283.28,281.99 170.10,225.40 161.18,225.40 104.98,225.40 177.83,371.09 327.83,371.09" style="fill:var(--viz-series-1);fill-opacity:.30;stroke:none"/>
<polygon points="452.55,71.09 461.47,71.09 283.28,-18.01 170.10,-74.60 161.18,-74.60 104.98,-74.60 177.83,71.09 327.83,71.09" style="fill:var(--viz-series-1);fill-opacity:.30;stroke:none"/>
<polygon points="-13.75,287.93 152.55,371.09 165.04,377.33 30.95,377.33 27.83,371.09" style="fill:var(--viz-series-1);fill-opacity:.30;stroke:none"/>
<polygon points="-13.75,-12.07 152.55,71.09 165.04,77.33 30.95,77.33 27.83,71.09" style="fill:var(--viz-series-1);fill-opacity:.30;stroke:none"/>
<polygon points="286.25,287.93 452.55,371.09 465.04,377.33 330.95,377.33 327.83,371.09" style="fill:var(--viz-series-1);fill-opacity:.30;stroke:none"/>
<polygon points="286.25,-12.07 452.55,71.09 465.04,77.33 330.95,77.33 327.83,71.09" style="fill:var(--viz-series-1);fill-opacity:.30;stroke:none"/>
<polygon points="38.08,159.39 29.16,159.39 86.25,187.93 83.28,181.99 71.98,159.39" style="fill:var(--viz-series-2);fill-opacity:.30;stroke:none"/>
<polygon points="29.16,159.39 -113.75,87.93 -78.02,159.39" style="fill:var(--viz-series-1);fill-opacity:.30;stroke:none"/>
<polygon points="329.16,159.39 186.25,87.93 221.98,159.39" style="fill:var(--viz-series-1);fill-opacity:.30;stroke:none"/>
<polygon points="173.96,77.33 165.04,77.33 186.25,87.93 183.28,81.99 180.95,77.33" style="fill:var(--viz-series-2);fill-opacity:.30;stroke:none"/>
</g>
<rect x="14.0" y="14.0" width="300.0" height="300.0" style="fill:none;stroke:var(--viz-series-3);stroke-width:1.8"/>
<g clip-path="url(#one-polygon-074b9c863c-1-276b5d6-boundary)">
<line x1="160.58" y1="225.10" x2="86.25" y2="187.93" style="stroke:var(--viz-series-1);stroke-width:1.8;stroke-linejoin:round;stroke-linecap:round"/>
<line x1="86.25" y1="187.93" x2="104.83" y2="225.10" style="stroke:var(--viz-series-1);stroke-width:1.8;stroke-linejoin:round;stroke-linecap:round"/>
<line x1="104.83" y1="225.10" x2="160.58" y2="225.10" style="stroke:var(--viz-series-1);stroke-width:1.8;stroke-linejoin:round;stroke-linecap:round"/>
<line x1="-45.02" y1="225.40" x2="104.98" y2="225.40" style="stroke:var(--viz-series-2);stroke-width:1.8;stroke-linejoin:round;stroke-linecap:round"/>
<line x1="104.98" y1="225.40" x2="104.83" y2="225.10" style="stroke:var(--viz-series-2);stroke-width:1.8;stroke-linejoin:round;stroke-linecap:round"/>
<line x1="104.83" y1="225.10" x2="-45.17" y2="225.10" style="stroke:var(--viz-series-2);stroke-width:1.8;stroke-linejoin:round;stroke-linecap:round"/>
<line x1="254.83" y1="225.10" x2="221.98" y2="159.39" style="stroke:var(--viz-series-2);stroke-width:1.8;stroke-linejoin:round;stroke-linecap:round"/>
<line x1="221.98" y1="159.39" x2="71.98" y2="159.39" style="stroke:var(--viz-series-2);stroke-width:1.8;stroke-linejoin:round;stroke-linecap:round"/>
<line x1="71.98" y1="159.39" x2="30.95" y2="77.33" style="stroke:var(--viz-series-2);stroke-width:1.8;stroke-linejoin:round;stroke-linecap:round"/>
<line x1="30.95" y1="77.33" x2="-119.05" y2="77.33" style="stroke:var(--viz-series-2);stroke-width:1.8;stroke-linejoin:round;stroke-linecap:round"/>
<line x1="-116.72" y1="81.99" x2="38.08" y2="159.39" style="stroke:var(--viz-series-2);stroke-width:1.8;stroke-linejoin:round;stroke-linecap:round"/>
<line x1="38.08" y1="159.39" x2="83.28" y2="181.99" style="stroke:var(--viz-series-2);stroke-width:1.8;stroke-linejoin:round;stroke-linecap:round"/>
<line x1="83.28" y1="181.99" x2="169.50" y2="225.10" style="stroke:var(--viz-series-2);stroke-width:1.8;stroke-linejoin:round;stroke-linecap:round"/>
<line x1="169.50" y1="225.10" x2="170.10" y2="225.40" style="stroke:var(--viz-series-2);stroke-width:1.8;stroke-linejoin:round;stroke-linecap:round"/>
<line x1="170.10" y1="225.40" x2="254.98" y2="225.40" style="stroke:var(--viz-series-2);stroke-width:1.8;stroke-linejoin:round;stroke-linecap:round"/>
<line x1="254.98" y1="225.40" x2="404.98" y2="225.40" style="stroke:var(--viz-series-2);stroke-width:1.8;stroke-linejoin:round;stroke-linecap:round"/>
<line x1="404.83" y1="225.10" x2="254.83" y2="225.10" style="stroke:var(--viz-series-2);stroke-width:1.8;stroke-linejoin:round;stroke-linecap:round"/>
<line x1="330.95" y1="77.33" x2="180.95" y2="77.33" style="stroke:var(--viz-series-2);stroke-width:1.8;stroke-linejoin:round;stroke-linecap:round"/>
<line x1="180.95" y1="77.33" x2="177.83" y2="71.09" style="stroke:var(--viz-series-2);stroke-width:1.8;stroke-linejoin:round;stroke-linecap:round"/>
<line x1="177.83" y1="71.09" x2="161.47" y2="71.09" style="stroke:var(--viz-series-2);stroke-width:1.8;stroke-linejoin:round;stroke-linecap:round"/>
<line x1="161.47" y1="71.09" x2="173.96" y2="77.33" style="stroke:var(--viz-series-2);stroke-width:1.8;stroke-linejoin:round;stroke-linecap:round"/>
<line x1="173.96" y1="77.33" x2="183.28" y2="81.99" style="stroke:var(--viz-series-2);stroke-width:1.8;stroke-linejoin:round;stroke-linecap:round"/>
<line x1="183.28" y1="81.99" x2="338.08" y2="159.39" style="stroke:var(--viz-series-2);stroke-width:1.8;stroke-linejoin:round;stroke-linecap:round"/>
<line x1="169.50" y1="225.10" x2="160.58" y2="225.10" style="stroke:var(--viz-series-2);stroke-width:1.8;stroke-linejoin:round;stroke-linecap:round"/>
<line x1="160.58" y1="225.10" x2="161.18" y2="225.40" style="stroke:var(--viz-series-2);stroke-width:1.8;stroke-linejoin:round;stroke-linecap:round"/>
<line x1="161.18" y1="225.40" x2="286.25" y2="287.93" style="stroke:var(--viz-series-2);stroke-width:1.8;stroke-linejoin:round;stroke-linecap:round"/>
<line x1="286.25" y1="287.93" x2="283.28" y2="281.99" style="stroke:var(--viz-series-2);stroke-width:1.8;stroke-linejoin:round;stroke-linecap:round"/>
<line x1="283.28" y1="281.99" x2="254.98" y2="225.40" style="stroke:var(--viz-series-2);stroke-width:1.8;stroke-linejoin:round;stroke-linecap:round"/>
<line x1="254.98" y1="225.40" x2="254.83" y2="225.10" style="stroke:var(--viz-series-2);stroke-width:1.8;stroke-linejoin:round;stroke-linecap:round"/>
<line x1="254.83" y1="225.10" x2="169.50" y2="225.10" style="stroke:var(--viz-series-2);stroke-width:1.8;stroke-linejoin:round;stroke-linecap:round"/>
<line x1="161.47" y1="371.09" x2="-16.72" y2="281.99" style="stroke:var(--viz-series-1);stroke-width:1.8;stroke-linejoin:round;stroke-linecap:round"/>
<line x1="152.55" y1="71.09" x2="161.47" y2="71.09" style="stroke:var(--viz-series-1);stroke-width:1.8;stroke-linejoin:round;stroke-linecap:round"/>
<line x1="161.47" y1="71.09" x2="-16.72" y2="-18.01" style="stroke:var(--viz-series-1);stroke-width:1.8;stroke-linejoin:round;stroke-linecap:round"/>
<line x1="-122.17" y1="71.09" x2="27.83" y2="71.09" style="stroke:var(--viz-series-1);stroke-width:1.8;stroke-linejoin:round;stroke-linecap:round"/>
<line x1="27.83" y1="71.09" x2="152.55" y2="71.09" style="stroke:var(--viz-series-1);stroke-width:1.8;stroke-linejoin:round;stroke-linecap:round"/>
<line x1="461.47" y1="371.09" x2="283.28" y2="281.99" style="stroke:var(--viz-series-1);stroke-width:1.8;stroke-linejoin:round;stroke-linecap:round"/>
<line x1="283.28" y1="281.99" x2="170.10" y2="225.40" style="stroke:var(--viz-series-1);stroke-width:1.8;stroke-linejoin:round;stroke-linecap:round"/>
<line x1="170.10" y1="225.40" x2="161.18" y2="225.40" style="stroke:var(--viz-series-1);stroke-width:1.8;stroke-linejoin:round;stroke-linecap:round"/>
<line x1="161.18" y1="225.40" x2="104.98" y2="225.40" style="stroke:var(--viz-series-1);stroke-width:1.8;stroke-linejoin:round;stroke-linecap:round"/>
<line x1="104.98" y1="225.40" x2="177.83" y2="371.09" style="stroke:var(--viz-series-1);stroke-width:1.8;stroke-linejoin:round;stroke-linecap:round"/>
<line x1="461.47" y1="71.09" x2="283.28" y2="-18.01" style="stroke:var(--viz-series-1);stroke-width:1.8;stroke-linejoin:round;stroke-linecap:round"/>
<line x1="104.98" y1="-74.60" x2="177.83" y2="71.09" style="stroke:var(--viz-series-1);stroke-width:1.8;stroke-linejoin:round;stroke-linecap:round"/>
<line x1="177.83" y1="71.09" x2="327.83" y2="71.09" style="stroke:var(--viz-series-1);stroke-width:1.8;stroke-linejoin:round;stroke-linecap:round"/>
<line x1="-13.75" y1="287.93" x2="152.55" y2="371.09" style="stroke:var(--viz-series-1);stroke-width:1.8;stroke-linejoin:round;stroke-linecap:round"/>
<line x1="27.83" y1="371.09" x2="-13.75" y2="287.93" style="stroke:var(--viz-series-1);stroke-width:1.8;stroke-linejoin:round;stroke-linecap:round"/>
<line x1="-13.75" y1="-12.07" x2="152.55" y2="71.09" style="stroke:var(--viz-series-1);stroke-width:1.8;stroke-linejoin:round;stroke-linecap:round"/>
<line x1="152.55" y1="71.09" x2="165.04" y2="77.33" style="stroke:var(--viz-series-1);stroke-width:1.8;stroke-linejoin:round;stroke-linecap:round"/>
<line x1="165.04" y1="77.33" x2="30.95" y2="77.33" style="stroke:var(--viz-series-1);stroke-width:1.8;stroke-linejoin:round;stroke-linecap:round"/>
<line x1="30.95" y1="77.33" x2="27.83" y2="71.09" style="stroke:var(--viz-series-1);stroke-width:1.8;stroke-linejoin:round;stroke-linecap:round"/>
<line x1="27.83" y1="71.09" x2="-13.75" y2="-12.07" style="stroke:var(--viz-series-1);stroke-width:1.8;stroke-linejoin:round;stroke-linecap:round"/>
<line x1="286.25" y1="287.93" x2="452.55" y2="371.09" style="stroke:var(--viz-series-1);stroke-width:1.8;stroke-linejoin:round;stroke-linecap:round"/>
<line x1="327.83" y1="371.09" x2="286.25" y2="287.93" style="stroke:var(--viz-series-1);stroke-width:1.8;stroke-linejoin:round;stroke-linecap:round"/>
<line x1="286.25" y1="-12.07" x2="452.55" y2="71.09" style="stroke:var(--viz-series-1);stroke-width:1.8;stroke-linejoin:round;stroke-linecap:round"/>
<line x1="327.83" y1="71.09" x2="286.25" y2="-12.07" style="stroke:var(--viz-series-1);stroke-width:1.8;stroke-linejoin:round;stroke-linecap:round"/>
<line x1="38.08" y1="159.39" x2="29.16" y2="159.39" style="stroke:var(--viz-series-2);stroke-width:1.8;stroke-linejoin:round;stroke-linecap:round"/>
<line x1="29.16" y1="159.39" x2="86.25" y2="187.93" style="stroke:var(--viz-series-2);stroke-width:1.8;stroke-linejoin:round;stroke-linecap:round"/>
<line x1="86.25" y1="187.93" x2="83.28" y2="181.99" style="stroke:var(--viz-series-2);stroke-width:1.8;stroke-linejoin:round;stroke-linecap:round"/>
<line x1="83.28" y1="181.99" x2="71.98" y2="159.39" style="stroke:var(--viz-series-2);stroke-width:1.8;stroke-linejoin:round;stroke-linecap:round"/>
<line x1="71.98" y1="159.39" x2="38.08" y2="159.39" style="stroke:var(--viz-series-2);stroke-width:1.8;stroke-linejoin:round;stroke-linecap:round"/>
<line x1="29.16" y1="159.39" x2="-113.75" y2="87.93" style="stroke:var(--viz-series-1);stroke-width:1.8;stroke-linejoin:round;stroke-linecap:round"/>
<line x1="-78.02" y1="159.39" x2="29.16" y2="159.39" style="stroke:var(--viz-series-1);stroke-width:1.8;stroke-linejoin:round;stroke-linecap:round"/>
<line x1="329.16" y1="159.39" x2="186.25" y2="87.93" style="stroke:var(--viz-series-1);stroke-width:1.8;stroke-linejoin:round;stroke-linecap:round"/>
<line x1="186.25" y1="87.93" x2="221.98" y2="159.39" style="stroke:var(--viz-series-1);stroke-width:1.8;stroke-linejoin:round;stroke-linecap:round"/>
<line x1="221.98" y1="159.39" x2="329.16" y2="159.39" style="stroke:var(--viz-series-1);stroke-width:1.8;stroke-linejoin:round;stroke-linecap:round"/>
<line x1="173.96" y1="77.33" x2="165.04" y2="77.33" style="stroke:var(--viz-series-2);stroke-width:1.8;stroke-linejoin:round;stroke-linecap:round"/>
<line x1="165.04" y1="77.33" x2="186.25" y2="87.93" style="stroke:var(--viz-series-2);stroke-width:1.8;stroke-linejoin:round;stroke-linecap:round"/>
<line x1="186.25" y1="87.93" x2="183.28" y2="81.99" style="stroke:var(--viz-series-2);stroke-width:1.8;stroke-linejoin:round;stroke-linecap:round"/>
<line x1="183.28" y1="81.99" x2="180.95" y2="77.33" style="stroke:var(--viz-series-2);stroke-width:1.8;stroke-linejoin:round;stroke-linecap:round"/>
<line x1="180.95" y1="77.33" x2="173.96" y2="77.33" style="stroke:var(--viz-series-2);stroke-width:1.8;stroke-linejoin:round;stroke-linecap:round"/>
</g>
<circle cx="29.16" cy="159.39" r="3.05" style="fill:var(--foreground);stroke:var(--card);stroke-width:1.0"/>
<circle cx="30.95" cy="77.33" r="3.05" style="fill:var(--foreground);stroke:var(--card);stroke-width:1.0"/>
<circle cx="71.98" cy="159.39" r="3.05" style="fill:var(--foreground);stroke:var(--card);stroke-width:1.0"/>
<circle cx="86.25" cy="187.93" r="3.05" style="fill:var(--foreground);stroke:var(--card);stroke-width:1.0"/>
<circle cx="104.83" cy="225.10" r="3.05" style="fill:var(--foreground);stroke:var(--card);stroke-width:1.0"/>
<circle cx="104.98" cy="225.40" r="3.05" style="fill:var(--foreground);stroke:var(--card);stroke-width:1.0"/>
<circle cx="160.58" cy="225.10" r="3.05" style="fill:var(--foreground);stroke:var(--card);stroke-width:1.0"/>
<circle cx="161.47" cy="71.09" r="3.05" style="fill:var(--foreground);stroke:var(--card);stroke-width:1.0"/>
<circle cx="165.04" cy="77.33" r="3.05" style="fill:var(--foreground);stroke:var(--card);stroke-width:1.0"/>
<circle cx="170.10" cy="225.40" r="3.05" style="fill:var(--foreground);stroke:var(--card);stroke-width:1.0"/>
<circle cx="177.83" cy="71.09" r="3.05" style="fill:var(--foreground);stroke:var(--card);stroke-width:1.0"/>
<circle cx="180.95" cy="77.33" r="3.05" style="fill:var(--foreground);stroke:var(--card);stroke-width:1.0"/>
<circle cx="186.25" cy="87.93" r="3.05" style="fill:var(--foreground);stroke:var(--card);stroke-width:1.0"/>
<circle cx="221.98" cy="159.39" r="3.05" style="fill:var(--foreground);stroke:var(--card);stroke-width:1.0"/>
<circle cx="254.83" cy="225.10" r="3.05" style="fill:var(--foreground);stroke:var(--card);stroke-width:1.0"/>
<circle cx="286.25" cy="287.93" r="3.05" style="fill:var(--foreground);stroke:var(--card);stroke-width:1.0"/>
</svg>
