<?xml version="1.0" encoding="UTF-8"?>
<svg xmlns="http://www.w3.org/2000/svg"
     viewBox="0 0 328.0 328.0"
     width="328.0" height="328.0"
     role="img" aria-labelledby="title description">
  <title id="title">polygon-a681cfa306, genus 0, all-disk ruling 0x0c08</title>
  <desc id="description">Newton polygon vertices [[0, 1], [3, 0], [2, 2]]; 2 disk eyes and 3 switches.</desc>
  <metadata>{&quot;polygon_id&quot;:&quot;polygon-a681cfa306&quot;,&quot;vertices&quot;:[[0,1],[3,0],[2,2]],&quot;genus&quot;:0,&quot;sector&quot;:&quot;all-disk&quot;,&quot;mask&quot;:&quot;0x0c08&quot;,&quot;disk_eyes&quot;:2,&quot;annular_eyes&quot;:0,&quot;switches&quot;:3,&quot;switch_profile&quot;:{&quot;A&quot;:1,&quot;B&quot;:0,&quot;V&quot;:2},&quot;sl2z&quot;:[[1,0],[0,1]],&quot;uses_tropical_count&quot;:false,&quot;coordinate_model&quot;:&quot;fixed catalog-frame fundamental square shared by every ruling of this polygon&quot;}</metadata>
  <style>
    svg {
      --card: #ffffff;
      --foreground: #111827;
      --viz-series-1: #2563eb;
      --viz-series-2: #ef4444;
      --viz-series-3: #16a34a;
    }
    .o4-diagram-bg { fill: var(--card); }
  </style>
<defs><clipPath id="one-polygon-a681cfa306-0-c08"><rect x="14.0" y="14.0" width="300.0" height="300.0"/></clipPath><clipPath id="one-polygon-a681cfa306-0-c08-boundary"><rect x="12.8" y="12.8" width="302.4" height="302.4"/></clipPath></defs>
<rect class="o4-diagram-bg" x="0" y="0" width="328.0" height="328.0"/>
<g clip-path="url(#one-polygon-a681cfa306-0-c08)">
<polygon points="-16.00,254.00 -46.00,194.00 -76.00,134.00 -136.00,164.00 -196.00,194.00 -256.00,224.00 -316.00,254.00 -376.00,284.00 -286.00,314.00 -196.00,344.00 -106.00,374.00 -16.00,404.00 74.00,434.00 44.00,374.00 14.00,314.00" style="fill:var(--viz-series-1);fill-opacity:.30;stroke:none"/>
<polygon points="-16.00,-46.00 -46.00,-106.00 -76.00,-166.00 -136.00,-136.00 -196.00,-106.00 -256.00,-76.00 -316.00,-46.00 -376.00,-16.00 -286.00,14.00 -196.00,44.00 -106.00,74.00 -16.00,104.00 74.00,134.00 44.00,74.00 14.00,14.00" style="fill:var(--viz-series-1);fill-opacity:.30;stroke:none"/>
<polygon points="284.00,254.00 254.00,194.00 224.00,134.00 164.00,164.00 104.00,194.00 44.00,224.00 -16.00,254.00 -76.00,284.00 14.00,314.00 104.00,344.00 194.00,374.00 284.00,404.00 374.00,434.00 344.00,374.00 314.00,314.00" style="fill:var(--viz-series-1);fill-opacity:.30;stroke:none"/>
<polygon points="284.00,-46.00 254.00,-106.00 224.00,-166.00 164.00,-136.00 104.00,-106.00 44.00,-76.00 -16.00,-46.00 -76.00,-16.00 14.00,14.00 104.00,44.00 194.00,74.00 284.00,104.00 374.00,134.00 344.00,74.00 314.00,14.00" style="fill:var(--viz-series-1);fill-opacity:.30;stroke:none"/>
<polygon points="584.00,254.00 554.00,194.00 524.00,134.00 464.00,164.00 404.00,194.00 344.00,224.00 284.00,254.00 224.00,284.00 314.00,314.00 404.00,344.00 494.00,374.00 584.00,404.00 674.00,434.00 644.00,374.00 614.00,314.00" style="fill:var(--viz-series-1);fill-opacity:.30;stroke:none"/>
<polygon points="584.00,-46.00 554.00,-106.00 524.00,-166.00 464.00,-136.00 404.00,-106.00 344.00,-76.00 284.00,-46.00 224.00,-16.00 314.00,14.00 404.00,44.00 494.00,74.00 584.00,104.00 674.00,134.00 644.00,74.00 614.00,14.00" style="fill:var(--viz-series-1);fill-opacity:.30;stroke:none"/>
<polygon points="-196.00,194.00 -166.00,254.00 -136.00,314.00 -106.00,374.00 -76.00,434.00 -16.00,404.00 44.00,374.00 104.00,344.00 164.00,314.00 224.00,284.00 134.00,254.00 44.00,224.00 -46.00,194.00 -136.00,164.00 -226.00,134.00" style="fill:var(--viz-series-2);fill-opacity:.30;stroke:none"/>
<polygon points="-196.00,-106.00 -166.00,-46.00 -136.00,14.00 -106.00,74.00 -76.00,134.00 -16.00,104.00 44.00,74.00 104.00,44.00 164.00,14.00 224.00,-16.00 134.00,-46.00 44.00,-76.00 -46.00,-106.00 -136.00,-136.00 -226.00,-166.00" style="fill:var(--viz-series-2);fill-opacity:.30;stroke:none"/>
<polygon points="104.00,194.00 134.00,254.00 164.00,314.00 194.00,374.00 224.00,434.00 284.00,404.00 344.00,374.00 404.00,344.00 464.00,314.00 524.00,284.00 434.00,254.00 344.00,224.00 254.00,194.00 164.00,164.00 74.00,134.00" style="fill:var(--viz-series-2);fill-opacity:.30;stroke:none"/>
<polygon points="104.00,-106.00 134.00,-46.00 164.00,14.00 194.00,74.00 224.00,134.00 284.00,104.00 344.00,74.00 404.00,44.00 464.00,14.00 524.00,-16.00 434.00,-46.00 344.00,-76.00 254.00,-106.00 164.00,-136.00 74.00,-166.00" style="fill:var(--viz-series-2);fill-opacity:.30;stroke:none"/>
</g>
<rect x="14.0" y="14.0" width="300.0" height="300.0" style="fill:none;stroke:var(--viz-series-3);stroke-width:1.8"/>
<g clip-path="url(#one-polygon-a681cfa306-0-c08-boundary)">
<line x1="44.00" y1="374.00" x2="14.00" y2="314.00" style="stroke:var(--viz-series-1);stroke-width:1.8;stroke-linejoin:round;stroke-linecap:round"/>
<line x1="14.00" y1="314.00" x2="-16.00" y2="254.00" style="stroke:var(--viz-series-1);stroke-width:1.8;stroke-linejoin:round;stroke-linecap:round"/>
<line x1="-16.00" y1="104.00" x2="74.00" y2="134.00" style="stroke:var(--viz-series-1);stroke-width:1.8;stroke-linejoin:round;stroke-linecap:round"/>
<line x1="74.00" y1="134.00" x2="44.00" y2="74.00" style="stroke:var(--viz-series-1);stroke-width:1.8;stroke-linejoin:round;stroke-linecap:round"/>
<line x1="44.00" y1="74.00" x2="14.00" y2="14.00" style="stroke:var(--viz-series-1);stroke-width:1.8;stroke-linejoin:round;stroke-linecap:round"/>
<line x1="14.00" y1="14.00" x2="-16.00" y2="-46.00" style="stroke:var(--viz-series-1);stroke-width:1.8;stroke-linejoin:round;stroke-linecap:round"/>
<line x1="284.00" y1="254.00" x2="254.00" y2="194.00" style="stroke:var(--viz-series-1);stroke-width:1.8;stroke-linejoin:round;stroke-linecap:round"/>
<line x1="254.00" y1="194.00" x2="224.00" y2="134.00" style="stroke:var(--viz-series-1);stroke-width:1.8;stroke-linejoin:round;stroke-linecap:round"/>
<line x1="224.00" y1="134.00" x2="164.00" y2="164.00" style="stroke:var(--viz-series-1);stroke-width:1.8;stroke-linejoin:round;stroke-linecap:round"/>
<line x1="164.00" y1="164.00" x2="104.00" y2="194.00" style="stroke:var(--viz-series-1);stroke-width:1.8;stroke-linejoin:round;stroke-linecap:round"/>
<line x1="104.00" y1="194.00" x2="44.00" y2="224.00" style="stroke:var(--viz-series-1);stroke-width:1.8;stroke-linejoin:round;stroke-linecap:round"/>
<line x1="44.00" y1="224.00" x2="-16.00" y2="254.00" style="stroke:var(--viz-series-1);stroke-width:1.8;stroke-linejoin:round;stroke-linecap:round"/>
<line x1="-76.00" y1="284.00" x2="14.00" y2="314.00" style="stroke:var(--viz-series-1);stroke-width:1.8;stroke-linejoin:round;stroke-linecap:round"/>
<line x1="14.00" y1="314.00" x2="104.00" y2="344.00" style="stroke:var(--viz-series-1);stroke-width:1.8;stroke-linejoin:round;stroke-linecap:round"/>
<line x1="344.00" y1="374.00" x2="314.00" y2="314.00" style="stroke:var(--viz-series-1);stroke-width:1.8;stroke-linejoin:round;stroke-linecap:round"/>
<line x1="314.00" y1="314.00" x2="284.00" y2="254.00" style="stroke:var(--viz-series-1);stroke-width:1.8;stroke-linejoin:round;stroke-linecap:round"/>
<line x1="-76.00" y1="-16.00" x2="14.00" y2="14.00" style="stroke:var(--viz-series-1);stroke-width:1.8;stroke-linejoin:round;stroke-linecap:round"/>
<line x1="14.00" y1="14.00" x2="104.00" y2="44.00" style="stroke:var(--viz-series-1);stroke-width:1.8;stroke-linejoin:round;stroke-linecap:round"/>
<line x1="104.00" y1="44.00" x2="194.00" y2="74.00" style="stroke:var(--viz-series-1);stroke-width:1.8;stroke-linejoin:round;stroke-linecap:round"/>
<line x1="194.00" y1="74.00" x2="284.00" y2="104.00" style="stroke:var(--viz-series-1);stroke-width:1.8;stroke-linejoin:round;stroke-linecap:round"/>
<line x1="284.00" y1="104.00" x2="374.00" y2="134.00" style="stroke:var(--viz-series-1);stroke-width:1.8;stroke-linejoin:round;stroke-linecap:round"/>
<line x1="344.00" y1="74.00" x2="314.00" y2="14.00" style="stroke:var(--viz-series-1);stroke-width:1.8;stroke-linejoin:round;stroke-linecap:round"/>
<line x1="314.00" y1="14.00" x2="284.00" y2="-46.00" style="stroke:var(--viz-series-1);stroke-width:1.8;stroke-linejoin:round;stroke-linecap:round"/>
<line x1="344.00" y1="224.00" x2="284.00" y2="254.00" style="stroke:var(--viz-series-1);stroke-width:1.8;stroke-linejoin:round;stroke-linecap:round"/>
<line x1="284.00" y1="254.00" x2="224.00" y2="284.00" style="stroke:var(--viz-series-1);stroke-width:1.8;stroke-linejoin:round;stroke-linecap:round"/>
<line x1="224.00" y1="284.00" x2="314.00" y2="314.00" style="stroke:var(--viz-series-1);stroke-width:1.8;stroke-linejoin:round;stroke-linecap:round"/>
<line x1="314.00" y1="314.00" x2="404.00" y2="344.00" style="stroke:var(--viz-series-1);stroke-width:1.8;stroke-linejoin:round;stroke-linecap:round"/>
<line x1="224.00" y1="-16.00" x2="314.00" y2="14.00" style="stroke:var(--viz-series-1);stroke-width:1.8;stroke-linejoin:round;stroke-linecap:round"/>
<line x1="314.00" y1="14.00" x2="404.00" y2="44.00" style="stroke:var(--viz-series-1);stroke-width:1.8;stroke-linejoin:round;stroke-linecap:round"/>
<line x1="104.00" y1="344.00" x2="164.00" y2="314.00" style="stroke:var(--viz-series-2);stroke-width:1.8;stroke-linejoin:round;stroke-linecap:round"/>
<line x1="164.00" y1="314.00" x2="224.00" y2="284.00" style="stroke:var(--viz-series-2);stroke-width:1.8;stroke-linejoin:round;stroke-linecap:round"/>
<line x1="224.00" y1="284.00" x2="134.00" y2="254.00" style="stroke:var(--viz-series-2);stroke-width:1.8;stroke-linejoin:round;stroke-linecap:round"/>
<line x1="134.00" y1="254.00" x2="44.00" y2="224.00" style="stroke:var(--viz-series-2);stroke-width:1.8;stroke-linejoin:round;stroke-linecap:round"/>
<line x1="44.00" y1="224.00" x2="-46.00" y2="194.00" style="stroke:var(--viz-series-2);stroke-width:1.8;stroke-linejoin:round;stroke-linecap:round"/>
<line x1="-16.00" y1="104.00" x2="44.00" y2="74.00" style="stroke:var(--viz-series-2);stroke-width:1.8;stroke-linejoin:round;stroke-linecap:round"/>
<line x1="44.00" y1="74.00" x2="104.00" y2="44.00" style="stroke:var(--viz-series-2);stroke-width:1.8;stroke-linejoin:round;stroke-linecap:round"/>
<line x1="104.00" y1="44.00" x2="164.00" y2="14.00" style="stroke:var(--viz-series-2);stroke-width:1.8;stroke-linejoin:round;stroke-linecap:round"/>
<line x1="164.00" y1="14.00" x2="224.00" y2="-16.00" style="stroke:var(--viz-series-2);stroke-width:1.8;stroke-linejoin:round;stroke-linecap:round"/>
<line x1="104.00" y1="194.00" x2="134.00" y2="254.00" style="stroke:var(--viz-series-2);stroke-width:1.8;stroke-linejoin:round;stroke-linecap:round"/>
<line x1="134.00" y1="254.00" x2="164.00" y2="314.00" style="stroke:var(--viz-series-2);stroke-width:1.8;stroke-linejoin:round;stroke-linecap:round"/>
<line x1="164.00" y1="314.00" x2="194.00" y2="374.00" style="stroke:var(--viz-series-2);stroke-width:1.8;stroke-linejoin:round;stroke-linecap:round"/>
<line x1="344.00" y1="224.00" x2="254.00" y2="194.00" style="stroke:var(--viz-series-2);stroke-width:1.8;stroke-linejoin:round;stroke-linecap:round"/>
<line x1="254.00" y1="194.00" x2="164.00" y2="164.00" style="stroke:var(--viz-series-2);stroke-width:1.8;stroke-linejoin:round;stroke-linecap:round"/>
<line x1="164.00" y1="164.00" x2="74.00" y2="134.00" style="stroke:var(--viz-series-2);stroke-width:1.8;stroke-linejoin:round;stroke-linecap:round"/>
<line x1="74.00" y1="134.00" x2="104.00" y2="194.00" style="stroke:var(--viz-series-2);stroke-width:1.8;stroke-linejoin:round;stroke-linecap:round"/>
<line x1="134.00" y1="-46.00" x2="164.00" y2="14.00" style="stroke:var(--viz-series-2);stroke-width:1.8;stroke-linejoin:round;stroke-linecap:round"/>
<line x1="164.00" y1="14.00" x2="194.00" y2="74.00" style="stroke:var(--viz-series-2);stroke-width:1.8;stroke-linejoin:round;stroke-linecap:round"/>
<line x1="194.00" y1="74.00" x2="224.00" y2="134.00" style="stroke:var(--viz-series-2);stroke-width:1.8;stroke-linejoin:round;stroke-linecap:round"/>
<line x1="224.00" y1="134.00" x2="284.00" y2="104.00" style="stroke:var(--viz-series-2);stroke-width:1.8;stroke-linejoin:round;stroke-linecap:round"/>
<line x1="284.00" y1="104.00" x2="344.00" y2="74.00" style="stroke:var(--viz-series-2);stroke-width:1.8;stroke-linejoin:round;stroke-linecap:round"/>
</g>
<circle cx="74.00" cy="134.00" r="3.05" style="fill:var(--foreground);stroke:var(--card);stroke-width:1.0"/>
<circle cx="224.00" cy="284.00" r="3.05" style="fill:var(--foreground);stroke:var(--card);stroke-width:1.0"/>
<circle cx="224.00" cy="134.00" r="3.05" style="fill:var(--foreground);stroke:var(--card);stroke-width:1.0"/>
</svg>
