<?xml version="1.0" encoding="UTF-8"?>
<svg xmlns="http://www.w3.org/2000/svg"
     viewBox="0 0 328.0 328.0"
     width="328.0" height="328.0"
     role="img" aria-labelledby="title description">
  <title id="title">polygon-c76806329e, genus 0, annular ruling 0x1154c, witness 1</title>
  <desc id="description">Newton polygon vertices [[0, 0], [1, 0], [3, 1], [0, 2]]; 4 disk eyes, 1 annular eyes, and 7 switches.</desc>
  <metadata>{&quot;polygon_id&quot;:&quot;polygon-c76806329e&quot;,&quot;vertices&quot;:[[0,0],[1,0],[3,1],[0,2]],&quot;genus&quot;:0,&quot;sector&quot;:&quot;annular&quot;,&quot;mask&quot;:&quot;0x1154c&quot;,&quot;witness&quot;:1,&quot;disk_eyes&quot;:4,&quot;annular_eyes&quot;:1,&quot;switches&quot;:7,&quot;switch_profile&quot;:{&quot;A&quot;:2,&quot;B&quot;:1,&quot;V&quot;:4},&quot;sl2z&quot;:[[1,-1],[0,1]],&quot;uses_tropical_count&quot;:false,&quot;coordinate_model&quot;:&quot;fixed fundamental square with per-annular-eye lifted determinant-one normalization mapped back&quot;,&quot;essential_homologies&quot;:[[-1,0]],&quot;annular_eye_transforms&quot;:[{&quot;pair&quot;:[3,0],&quot;color&quot;:&quot;blue&quot;,&quot;essential_homology&quot;:[-1,0],&quot;display_homology&quot;:[-1,0],&quot;phase_shift&quot;:[0,0],&quot;horizontal_phase_shift&quot;:[0,0],&quot;to_horizontal_determinant_one&quot;:[[-1,0],[0,-1]]}]}</metadata>
  <style>
    svg {
      --card: #ffffff;
      --foreground: #111827;
      --viz-series-1: #2563eb;
      --viz-series-2: #ef4444;
      --viz-series-3: #16a34a;
    }
    .o4-diagram-bg { fill: var(--card); }
  </style>
<defs><clipPath id="one-polygon-c76806329e-ann-1154c-1"><rect x="14.0" y="14.0" width="300.0" height="300.0"/></clipPath><clipPath id="one-polygon-c76806329e-ann-1154c-1-boundary"><rect x="12.8" y="12.8" width="302.4" height="302.4"/></clipPath></defs>
<rect class="o4-diagram-bg" x="0" y="0" width="328.0" height="328.0"/>
<g clip-path="url(#one-polygon-c76806329e-ann-1154c-1)">
<polygon points="7.76,300.92 14.00,297.80 127.76,240.92 164.00,222.80 164.00,253.00 164.00,314.00 164.00,353.00 164.00,372.80 164.00,453.00 67.76,420.92 14.00,403.00 -112.24,360.92 -18.41,314.00" style="fill:var(--viz-series-2);fill-opacity:.30;stroke:none"/>
<polygon points="7.76,0.92 14.00,-2.20 127.76,-59.08 164.00,-77.20 164.00,-47.00 164.00,14.00 164.00,53.00 164.00,72.80 164.00,153.00 67.76,120.92 14.00,103.00 -112.24,60.92 -18.41,14.00" style="fill:var(--viz-series-2);fill-opacity:.30;stroke:none"/>
<polygon points="307.76,300.92 314.00,297.80 427.76,240.92 464.00,222.80 464.00,253.00 464.00,314.00 464.00,353.00 464.00,372.80 464.00,453.00 367.76,420.92 314.00,403.00 187.76,360.92 281.59,314.00" style="fill:var(--viz-series-2);fill-opacity:.30;stroke:none"/>
<polygon points="307.76,0.92 314.00,-2.20 427.76,-59.08 464.00,-77.20 464.00,-47.00 464.00,14.00 464.00,53.00 464.00,72.80 464.00,153.00 367.76,120.92 314.00,103.00 187.76,60.92 281.59,14.00" style="fill:var(--viz-series-2);fill-opacity:.30;stroke:none"/>
<polygon points="14.00,303.00 14.00,314.00 14.00,403.00 14.00,447.80 67.76,420.92 164.00,372.80 187.76,360.92 164.00,353.00 47.00,314.00" style="fill:var(--viz-series-1);fill-opacity:.30;stroke:none"/>
<polygon points="14.00,3.00 14.00,14.00 14.00,103.00 14.00,147.80 67.76,120.92 164.00,72.80 187.76,60.92 164.00,53.00 47.00,14.00" style="fill:var(--viz-series-1);fill-opacity:.30;stroke:none"/>
<polygon points="314.00,303.00 314.00,314.00 314.00,403.00 314.00,447.80 367.76,420.92 464.00,372.80 487.76,360.92 464.00,353.00 347.00,314.00" style="fill:var(--viz-series-1);fill-opacity:.30;stroke:none"/>
<polygon points="314.00,3.00 314.00,14.00 314.00,103.00 314.00,147.80 367.76,120.92 464.00,72.80 487.76,60.92 464.00,53.00 347.00,14.00" style="fill:var(--viz-series-1);fill-opacity:.30;stroke:none"/>
<polygon points="14.00,147.80 14.00,203.00 -52.24,180.92" style="fill:var(--viz-series-2);fill-opacity:.30;stroke:none"/>
<polygon points="314.00,147.80 314.00,203.00 247.76,180.92" style="fill:var(--viz-series-2);fill-opacity:.30;stroke:none"/>
<polygon points="164.00,153.00 164.00,222.80 247.76,180.92" style="fill:var(--viz-series-1);fill-opacity:.30;stroke:none"/>
<polygon points="283.44,292.81 164.00,253.00 127.76,240.92 14.00,203.00 14.00,297.80 14.00,303.00 7.76,300.92 -16.56,292.81 4.62,314.00 14.00,314.00 47.00,314.00 164.00,314.00 281.59,314.00 304.62,314.00" style="fill:var(--viz-series-1);fill-opacity:.30;stroke:none"/>
<polygon points="283.44,-7.19 164.00,-47.00 127.76,-59.08 14.00,-97.00 14.00,-2.20 14.00,3.00 7.76,0.92 -16.56,-7.19 4.62,14.00 14.00,14.00 47.00,14.00 164.00,14.00 281.59,14.00 304.62,14.00" style="fill:var(--viz-series-1);fill-opacity:.30;stroke:none"/>
<polygon points="583.44,292.81 464.00,253.00 427.76,240.92 314.00,203.00 314.00,297.80 314.00,303.00 307.76,300.92 283.44,292.81 304.62,314.00 314.00,314.00 347.00,314.00 464.00,314.00 581.59,314.00 604.62,314.00" style="fill:var(--viz-series-1);fill-opacity:.30;stroke:none"/>
<polygon points="583.44,-7.19 464.00,-47.00 427.76,-59.08 314.00,-97.00 314.00,-2.20 314.00,3.00 307.76,0.92 283.44,-7.19 304.62,14.00 314.00,14.00 347.00,14.00 464.00,14.00 581.59,14.00 604.62,14.00" style="fill:var(--viz-series-1);fill-opacity:.30;stroke:none"/>
</g>
<rect x="14.0" y="14.0" width="300.0" height="300.0" style="fill:none;stroke:var(--viz-series-3);stroke-width:1.8"/>
<g clip-path="url(#one-polygon-c76806329e-ann-1154c-1-boundary)">
<line x1="7.76" y1="300.92" x2="14.00" y2="297.80" style="stroke:var(--viz-series-2);stroke-width:1.8;stroke-linejoin:round;stroke-linecap:round"/>
<line x1="14.00" y1="297.80" x2="127.76" y2="240.92" style="stroke:var(--viz-series-2);stroke-width:1.8;stroke-linejoin:round;stroke-linecap:round"/>
<line x1="127.76" y1="240.92" x2="164.00" y2="222.80" style="stroke:var(--viz-series-2);stroke-width:1.8;stroke-linejoin:round;stroke-linecap:round"/>
<line x1="164.00" y1="222.80" x2="164.00" y2="253.00" style="stroke:var(--viz-series-2);stroke-width:1.8;stroke-linejoin:round;stroke-linecap:round"/>
<line x1="164.00" y1="253.00" x2="164.00" y2="314.00" style="stroke:var(--viz-series-2);stroke-width:1.8;stroke-linejoin:round;stroke-linecap:round"/>
<line x1="164.00" y1="314.00" x2="164.00" y2="353.00" style="stroke:var(--viz-series-2);stroke-width:1.8;stroke-linejoin:round;stroke-linecap:round"/>
<line x1="164.00" y1="-47.00" x2="164.00" y2="14.00" style="stroke:var(--viz-series-2);stroke-width:1.8;stroke-linejoin:round;stroke-linecap:round"/>
<line x1="164.00" y1="14.00" x2="164.00" y2="53.00" style="stroke:var(--viz-series-2);stroke-width:1.8;stroke-linejoin:round;stroke-linecap:round"/>
<line x1="164.00" y1="53.00" x2="164.00" y2="72.80" style="stroke:var(--viz-series-2);stroke-width:1.8;stroke-linejoin:round;stroke-linecap:round"/>
<line x1="164.00" y1="72.80" x2="164.00" y2="153.00" style="stroke:var(--viz-series-2);stroke-width:1.8;stroke-linejoin:round;stroke-linecap:round"/>
<line x1="164.00" y1="153.00" x2="67.76" y2="120.92" style="stroke:var(--viz-series-2);stroke-width:1.8;stroke-linejoin:round;stroke-linecap:round"/>
<line x1="67.76" y1="120.92" x2="14.00" y2="103.00" style="stroke:var(--viz-series-2);stroke-width:1.8;stroke-linejoin:round;stroke-linecap:round"/>
<line x1="14.00" y1="103.00" x2="-112.24" y2="60.92" style="stroke:var(--viz-series-2);stroke-width:1.8;stroke-linejoin:round;stroke-linecap:round"/>
<line x1="307.76" y1="300.92" x2="314.00" y2="297.80" style="stroke:var(--viz-series-2);stroke-width:1.8;stroke-linejoin:round;stroke-linecap:round"/>
<line x1="314.00" y1="297.80" x2="427.76" y2="240.92" style="stroke:var(--viz-series-2);stroke-width:1.8;stroke-linejoin:round;stroke-linecap:round"/>
<line x1="187.76" y1="360.92" x2="281.59" y2="314.00" style="stroke:var(--viz-series-2);stroke-width:1.8;stroke-linejoin:round;stroke-linecap:round"/>
<line x1="281.59" y1="314.00" x2="307.76" y2="300.92" style="stroke:var(--viz-series-2);stroke-width:1.8;stroke-linejoin:round;stroke-linecap:round"/>
<line x1="367.76" y1="120.92" x2="314.00" y2="103.00" style="stroke:var(--viz-series-2);stroke-width:1.8;stroke-linejoin:round;stroke-linecap:round"/>
<line x1="314.00" y1="103.00" x2="187.76" y2="60.92" style="stroke:var(--viz-series-2);stroke-width:1.8;stroke-linejoin:round;stroke-linecap:round"/>
<line x1="187.76" y1="60.92" x2="281.59" y2="14.00" style="stroke:var(--viz-series-2);stroke-width:1.8;stroke-linejoin:round;stroke-linecap:round"/>
<line x1="281.59" y1="14.00" x2="307.76" y2="0.92" style="stroke:var(--viz-series-2);stroke-width:1.8;stroke-linejoin:round;stroke-linecap:round"/>
<line x1="14.00" y1="303.00" x2="14.00" y2="314.00" style="stroke:var(--viz-series-1);stroke-width:1.8;stroke-linejoin:round;stroke-linecap:round"/>
<line x1="164.00" y1="353.00" x2="47.00" y2="314.00" style="stroke:var(--viz-series-1);stroke-width:1.8;stroke-linejoin:round;stroke-linecap:round"/>
<line x1="47.00" y1="314.00" x2="14.00" y2="303.00" style="stroke:var(--viz-series-1);stroke-width:1.8;stroke-linejoin:round;stroke-linecap:round"/>
<line x1="14.00" y1="14.00" x2="14.00" y2="103.00" style="stroke:var(--viz-series-1);stroke-width:1.8;stroke-linejoin:round;stroke-linecap:round"/>
<line x1="14.00" y1="103.00" x2="14.00" y2="147.80" style="stroke:var(--viz-series-1);stroke-width:1.8;stroke-linejoin:round;stroke-linecap:round"/>
<line x1="14.00" y1="147.80" x2="67.76" y2="120.92" style="stroke:var(--viz-series-1);stroke-width:1.8;stroke-linejoin:round;stroke-linecap:round"/>
<line x1="67.76" y1="120.92" x2="164.00" y2="72.80" style="stroke:var(--viz-series-1);stroke-width:1.8;stroke-linejoin:round;stroke-linecap:round"/>
<line x1="164.00" y1="72.80" x2="187.76" y2="60.92" style="stroke:var(--viz-series-1);stroke-width:1.8;stroke-linejoin:round;stroke-linecap:round"/>
<line x1="187.76" y1="60.92" x2="164.00" y2="53.00" style="stroke:var(--viz-series-1);stroke-width:1.8;stroke-linejoin:round;stroke-linecap:round"/>
<line x1="164.00" y1="53.00" x2="47.00" y2="14.00" style="stroke:var(--viz-series-1);stroke-width:1.8;stroke-linejoin:round;stroke-linecap:round"/>
<line x1="47.00" y1="14.00" x2="14.00" y2="3.00" style="stroke:var(--viz-series-1);stroke-width:1.8;stroke-linejoin:round;stroke-linecap:round"/>
<line x1="347.00" y1="314.00" x2="314.00" y2="303.00" style="stroke:var(--viz-series-1);stroke-width:1.8;stroke-linejoin:round;stroke-linecap:round"/>
<line x1="314.00" y1="147.80" x2="367.76" y2="120.92" style="stroke:var(--viz-series-1);stroke-width:1.8;stroke-linejoin:round;stroke-linecap:round"/>
<line x1="347.00" y1="14.00" x2="314.00" y2="3.00" style="stroke:var(--viz-series-1);stroke-width:1.8;stroke-linejoin:round;stroke-linecap:round"/>
<line x1="14.00" y1="203.00" x2="-52.24" y2="180.92" style="stroke:var(--viz-series-2);stroke-width:1.8;stroke-linejoin:round;stroke-linecap:round"/>
<line x1="-52.24" y1="180.92" x2="14.00" y2="147.80" style="stroke:var(--viz-series-2);stroke-width:1.8;stroke-linejoin:round;stroke-linecap:round"/>
<line x1="314.00" y1="147.80" x2="314.00" y2="203.00" style="stroke:var(--viz-series-2);stroke-width:1.8;stroke-linejoin:round;stroke-linecap:round"/>
<line x1="314.00" y1="203.00" x2="247.76" y2="180.92" style="stroke:var(--viz-series-2);stroke-width:1.8;stroke-linejoin:round;stroke-linecap:round"/>
<line x1="247.76" y1="180.92" x2="314.00" y2="147.80" style="stroke:var(--viz-series-2);stroke-width:1.8;stroke-linejoin:round;stroke-linecap:round"/>
<line x1="164.00" y1="153.00" x2="164.00" y2="222.80" style="stroke:var(--viz-series-1);stroke-width:1.8;stroke-linejoin:round;stroke-linecap:round"/>
<line x1="164.00" y1="222.80" x2="247.76" y2="180.92" style="stroke:var(--viz-series-1);stroke-width:1.8;stroke-linejoin:round;stroke-linecap:round"/>
<line x1="247.76" y1="180.92" x2="164.00" y2="153.00" style="stroke:var(--viz-series-1);stroke-width:1.8;stroke-linejoin:round;stroke-linecap:round"/>
</g>
<g clip-path="url(#one-polygon-c76806329e-ann-1154c-1-boundary)">
<line x1="283.44" y1="292.81" x2="164.00" y2="253.00" style="stroke:var(--viz-series-1);stroke-width:1.8;stroke-linejoin:round;stroke-linecap:round"/>
<line x1="164.00" y1="253.00" x2="127.76" y2="240.92" style="stroke:var(--viz-series-1);stroke-width:1.8;stroke-linejoin:round;stroke-linecap:round"/>
<line x1="127.76" y1="240.92" x2="14.00" y2="203.00" style="stroke:var(--viz-series-1);stroke-width:1.8;stroke-linejoin:round;stroke-linecap:round"/>
<line x1="14.00" y1="203.00" x2="14.00" y2="297.80" style="stroke:var(--viz-series-1);stroke-width:1.8;stroke-linejoin:round;stroke-linecap:round"/>
<line x1="14.00" y1="297.80" x2="14.00" y2="303.00" style="stroke:var(--viz-series-1);stroke-width:1.8;stroke-linejoin:round;stroke-linecap:round"/>
<line x1="14.00" y1="303.00" x2="7.76" y2="300.92" style="stroke:var(--viz-series-1);stroke-width:1.8;stroke-linejoin:round;stroke-linecap:round"/>
<line x1="427.76" y1="240.92" x2="314.00" y2="203.00" style="stroke:var(--viz-series-1);stroke-width:1.8;stroke-linejoin:round;stroke-linecap:round"/>
<line x1="314.00" y1="303.00" x2="307.76" y2="300.92" style="stroke:var(--viz-series-1);stroke-width:1.8;stroke-linejoin:round;stroke-linecap:round"/>
<line x1="307.76" y1="300.92" x2="283.44" y2="292.81" style="stroke:var(--viz-series-1);stroke-width:1.8;stroke-linejoin:round;stroke-linecap:round"/>
<line x1="304.62" y1="314.00" x2="281.59" y2="314.00" style="stroke:var(--viz-series-1);stroke-width:1.8;stroke-linejoin:round;stroke-linecap:round"/>
<line x1="281.59" y1="314.00" x2="164.00" y2="314.00" style="stroke:var(--viz-series-1);stroke-width:1.8;stroke-linejoin:round;stroke-linecap:round"/>
<line x1="164.00" y1="314.00" x2="47.00" y2="314.00" style="stroke:var(--viz-series-1);stroke-width:1.8;stroke-linejoin:round;stroke-linecap:round"/>
<line x1="47.00" y1="314.00" x2="14.00" y2="314.00" style="stroke:var(--viz-series-1);stroke-width:1.8;stroke-linejoin:round;stroke-linecap:round"/>
<line x1="314.00" y1="314.00" x2="304.62" y2="314.00" style="stroke:var(--viz-series-1);stroke-width:1.8;stroke-linejoin:round;stroke-linecap:round"/>
</g>
<circle cx="14.00" cy="303.00" r="3.05" style="fill:var(--foreground);stroke:var(--card);stroke-width:1.0"/>
<circle cx="314.00" cy="303.00" r="3.05" style="fill:var(--foreground);stroke:var(--card);stroke-width:1.0"/>
<circle cx="164.00" cy="153.00" r="3.05" style="fill:var(--foreground);stroke:var(--card);stroke-width:1.0"/>
<circle cx="247.76" cy="180.92" r="3.05" style="fill:var(--foreground);stroke:var(--card);stroke-width:1.0"/>
<circle cx="14.00" cy="203.00" r="3.05" style="fill:var(--foreground);stroke:var(--card);stroke-width:1.0"/>
<circle cx="314.00" cy="203.00" r="3.05" style="fill:var(--foreground);stroke:var(--card);stroke-width:1.0"/>
<circle cx="187.76" cy="60.92" r="3.05" style="fill:var(--foreground);stroke:var(--card);stroke-width:1.0"/>
<circle cx="14.00" cy="147.80" r="3.05" style="fill:var(--foreground);stroke:var(--card);stroke-width:1.0"/>
<circle cx="314.00" cy="147.80" r="3.05" style="fill:var(--foreground);stroke:var(--card);stroke-width:1.0"/>
<circle cx="164.00" cy="222.80" r="3.05" style="fill:var(--foreground);stroke:var(--card);stroke-width:1.0"/>
</svg>
