<?xml version="1.0" encoding="UTF-8"?>
<svg xmlns="http://www.w3.org/2000/svg"
     viewBox="0 0 328.0 328.0"
     width="328.0" height="328.0"
     role="img" aria-labelledby="title description">
  <title id="title">polygon-708fa79ea2, genus 0, all-disk ruling 0x831c</title>
  <desc id="description">Newton polygon vertices [[0, 0], [2, 0], [3, 2], [1, 2]]; 2 disk eyes and 6 switches.</desc>
  <metadata>{&quot;polygon_id&quot;:&quot;polygon-708fa79ea2&quot;,&quot;vertices&quot;:[[0,0],[2,0],[3,2],[1,2]],&quot;genus&quot;:0,&quot;sector&quot;:&quot;all-disk&quot;,&quot;mask&quot;:&quot;0x831c&quot;,&quot;disk_eyes&quot;:2,&quot;annular_eyes&quot;:0,&quot;switches&quot;:6,&quot;switch_profile&quot;:{&quot;A&quot;:2,&quot;B&quot;:2,&quot;V&quot;:2},&quot;sl2z&quot;:[[1,0],[0,1]],&quot;uses_tropical_count&quot;:false,&quot;coordinate_model&quot;:&quot;fixed count-frame fundamental square shared by every ruling of this polygon&quot;}</metadata>
  <style>
    svg {
      --card: #ffffff;
      --foreground: #111827;
      --viz-series-1: #2563eb;
      --viz-series-2: #ef4444;
      --viz-series-3: #16a34a;
    }
    .o4-diagram-bg { fill: var(--card); }
  </style>
<defs><clipPath id="one-polygon-708fa79ea2-0-831c"><rect x="14.0" y="14.0" width="300.0" height="300.0"/></clipPath><clipPath id="one-polygon-708fa79ea2-0-831c-boundary"><rect x="12.8" y="12.8" width="302.4" height="302.4"/></clipPath></defs>
<rect class="o4-diagram-bg" x="0" y="0" width="328.0" height="328.0"/>
<g clip-path="url(#one-polygon-708fa79ea2-0-831c)">
<polygon points="-178.52,329.16 -57.66,329.16 -28.52,329.16 92.34,329.16 102.01,309.84 192.25,129.36 71.38,129.36 -18.85,309.84 -47.99,309.84 -168.85,309.84 -197.99,309.84 -318.85,309.84 -328.52,329.16 -351.11,374.36 -378.62,429.36 -468.85,609.84 -478.52,629.16 -501.11,674.36 -380.25,674.36 -357.66,629.16 -347.99,609.84 -257.75,429.36 -230.25,374.36 -207.66,329.16" style="fill:var(--viz-series-1);fill-opacity:.30;stroke:none"/>
<polygon points="-178.52,29.16 -57.66,29.16 -28.52,29.16 92.34,29.16 102.01,9.84 192.25,-170.64 71.38,-170.64 -18.85,9.84 -47.99,9.84 -168.85,9.84 -197.99,9.84 -318.85,9.84 -328.52,29.16 -351.11,74.36 -378.62,129.36 -468.85,309.84 -478.52,329.16 -501.11,374.36 -380.25,374.36 -357.66,329.16 -347.99,309.84 -257.75,129.36 -230.25,74.36 -207.66,29.16" style="fill:var(--viz-series-1);fill-opacity:.30;stroke:none"/>
<polygon points="-178.52,-270.84 -57.66,-270.84 -28.52,-270.84 92.34,-270.84 102.01,-290.16 192.25,-470.64 71.38,-470.64 -18.85,-290.16 -47.99,-290.16 -168.85,-290.16 -197.99,-290.16 -318.85,-290.16 -328.52,-270.84 -351.11,-225.64 -378.62,-170.64 -468.85,9.84 -478.52,29.16 -501.11,74.36 -380.25,74.36 -357.66,29.16 -347.99,9.84 -257.75,-170.64 -230.25,-225.64 -207.66,-270.84" style="fill:var(--viz-series-1);fill-opacity:.30;stroke:none"/>
<polygon points="121.48,329.16 242.34,329.16 271.48,329.16 392.34,329.16 402.01,309.84 492.25,129.36 371.38,129.36 281.15,309.84 252.01,309.84 131.15,309.84 102.01,309.84 -18.85,309.84 -28.52,329.16 -51.11,374.36 -78.62,429.36 -168.85,609.84 -178.52,629.16 -201.11,674.36 -80.25,674.36 -57.66,629.16 -47.99,609.84 42.25,429.36 69.75,374.36 92.34,329.16" style="fill:var(--viz-series-1);fill-opacity:.30;stroke:none"/>
<polygon points="121.48,29.16 242.34,29.16 271.48,29.16 392.34,29.16 402.01,9.84 492.25,-170.64 371.38,-170.64 281.15,9.84 252.01,9.84 131.15,9.84 102.01,9.84 -18.85,9.84 -28.52,29.16 -51.11,74.36 -78.62,129.36 -168.85,309.84 -178.52,329.16 -201.11,374.36 -80.25,374.36 -57.66,329.16 -47.99,309.84 42.25,129.36 69.75,74.36 92.34,29.16" style="fill:var(--viz-series-1);fill-opacity:.30;stroke:none"/>
<polygon points="121.48,-270.84 242.34,-270.84 271.48,-270.84 392.34,-270.84 402.01,-290.16 492.25,-470.64 371.38,-470.64 281.15,-290.16 252.01,-290.16 131.15,-290.16 102.01,-290.16 -18.85,-290.16 -28.52,-270.84 -51.11,-225.64 -78.62,-170.64 -168.85,9.84 -178.52,29.16 -201.11,74.36 -80.25,74.36 -57.66,29.16 -47.99,9.84 42.25,-170.64 69.75,-225.64 92.34,-270.84" style="fill:var(--viz-series-1);fill-opacity:.30;stroke:none"/>
<polygon points="421.48,329.16 542.34,329.16 571.48,329.16 692.34,329.16 702.01,309.84 792.25,129.36 671.38,129.36 581.15,309.84 552.01,309.84 431.15,309.84 402.01,309.84 281.15,309.84 271.48,329.16 248.89,374.36 221.38,429.36 131.15,609.84 121.48,629.16 98.89,674.36 219.75,674.36 242.34,629.16 252.01,609.84 342.25,429.36 369.75,374.36 392.34,329.16" style="fill:var(--viz-series-1);fill-opacity:.30;stroke:none"/>
<polygon points="421.48,29.16 542.34,29.16 571.48,29.16 692.34,29.16 702.01,9.84 792.25,-170.64 671.38,-170.64 581.15,9.84 552.01,9.84 431.15,9.84 402.01,9.84 281.15,9.84 271.48,29.16 248.89,74.36 221.38,129.36 131.15,309.84 121.48,329.16 98.89,374.36 219.75,374.36 242.34,329.16 252.01,309.84 342.25,129.36 369.75,74.36 392.34,29.16" style="fill:var(--viz-series-1);fill-opacity:.30;stroke:none"/>
<polygon points="421.48,-270.84 542.34,-270.84 571.48,-270.84 692.34,-270.84 702.01,-290.16 792.25,-470.64 671.38,-470.64 581.15,-290.16 552.01,-290.16 431.15,-290.16 402.01,-290.16 281.15,-290.16 271.48,-270.84 248.89,-225.64 221.38,-170.64 131.15,9.84 121.48,29.16 98.89,74.36 219.75,74.36 242.34,29.16 252.01,9.84 342.25,-170.64 369.75,-225.64 392.34,-270.84" style="fill:var(--viz-series-1);fill-opacity:.30;stroke:none"/>
<polygon points="98.89,74.36 71.38,129.36 42.25,129.36 -78.62,129.36 -107.75,129.36 -80.25,74.36 -51.11,74.36 69.75,74.36" style="fill:var(--viz-series-2);fill-opacity:.30;stroke:none"/>
<polygon points="398.89,74.36 371.38,129.36 342.25,129.36 221.38,129.36 192.25,129.36 219.75,74.36 248.89,74.36 369.75,74.36" style="fill:var(--viz-series-2);fill-opacity:.30;stroke:none"/>
</g>
<rect x="14.0" y="14.0" width="300.0" height="300.0" style="fill:none;stroke:var(--viz-series-3);stroke-width:1.8"/>
<g clip-path="url(#one-polygon-708fa79ea2-0-831c-boundary)">
<line x1="92.34" y1="329.16" x2="102.01" y2="309.84" style="stroke:var(--viz-series-1);stroke-width:1.8;stroke-linejoin:round;stroke-linecap:round"/>
<line x1="102.01" y1="309.84" x2="192.25" y2="129.36" style="stroke:var(--viz-series-1);stroke-width:1.8;stroke-linejoin:round;stroke-linecap:round"/>
<line x1="192.25" y1="129.36" x2="71.38" y2="129.36" style="stroke:var(--viz-series-1);stroke-width:1.8;stroke-linejoin:round;stroke-linecap:round"/>
<line x1="71.38" y1="129.36" x2="-18.85" y2="309.84" style="stroke:var(--viz-series-1);stroke-width:1.8;stroke-linejoin:round;stroke-linecap:round"/>
<line x1="-28.52" y1="29.16" x2="92.34" y2="29.16" style="stroke:var(--viz-series-1);stroke-width:1.8;stroke-linejoin:round;stroke-linecap:round"/>
<line x1="92.34" y1="29.16" x2="102.01" y2="9.84" style="stroke:var(--viz-series-1);stroke-width:1.8;stroke-linejoin:round;stroke-linecap:round"/>
<line x1="371.38" y1="129.36" x2="281.15" y2="309.84" style="stroke:var(--viz-series-1);stroke-width:1.8;stroke-linejoin:round;stroke-linecap:round"/>
<line x1="281.15" y1="309.84" x2="252.01" y2="309.84" style="stroke:var(--viz-series-1);stroke-width:1.8;stroke-linejoin:round;stroke-linecap:round"/>
<line x1="252.01" y1="309.84" x2="131.15" y2="309.84" style="stroke:var(--viz-series-1);stroke-width:1.8;stroke-linejoin:round;stroke-linecap:round"/>
<line x1="131.15" y1="309.84" x2="102.01" y2="309.84" style="stroke:var(--viz-series-1);stroke-width:1.8;stroke-linejoin:round;stroke-linecap:round"/>
<line x1="102.01" y1="309.84" x2="-18.85" y2="309.84" style="stroke:var(--viz-series-1);stroke-width:1.8;stroke-linejoin:round;stroke-linecap:round"/>
<line x1="121.48" y1="29.16" x2="242.34" y2="29.16" style="stroke:var(--viz-series-1);stroke-width:1.8;stroke-linejoin:round;stroke-linecap:round"/>
<line x1="242.34" y1="29.16" x2="271.48" y2="29.16" style="stroke:var(--viz-series-1);stroke-width:1.8;stroke-linejoin:round;stroke-linecap:round"/>
<line x1="271.48" y1="29.16" x2="392.34" y2="29.16" style="stroke:var(--viz-series-1);stroke-width:1.8;stroke-linejoin:round;stroke-linecap:round"/>
<line x1="-47.99" y1="309.84" x2="42.25" y2="129.36" style="stroke:var(--viz-series-1);stroke-width:1.8;stroke-linejoin:round;stroke-linecap:round"/>
<line x1="42.25" y1="129.36" x2="69.75" y2="74.36" style="stroke:var(--viz-series-1);stroke-width:1.8;stroke-linejoin:round;stroke-linecap:round"/>
<line x1="69.75" y1="74.36" x2="92.34" y2="29.16" style="stroke:var(--viz-series-1);stroke-width:1.8;stroke-linejoin:round;stroke-linecap:round"/>
<line x1="92.34" y1="29.16" x2="121.48" y2="29.16" style="stroke:var(--viz-series-1);stroke-width:1.8;stroke-linejoin:round;stroke-linecap:round"/>
<line x1="402.01" y1="309.84" x2="281.15" y2="309.84" style="stroke:var(--viz-series-1);stroke-width:1.8;stroke-linejoin:round;stroke-linecap:round"/>
<line x1="281.15" y1="309.84" x2="271.48" y2="329.16" style="stroke:var(--viz-series-1);stroke-width:1.8;stroke-linejoin:round;stroke-linecap:round"/>
<line x1="281.15" y1="9.84" x2="271.48" y2="29.16" style="stroke:var(--viz-series-1);stroke-width:1.8;stroke-linejoin:round;stroke-linecap:round"/>
<line x1="271.48" y1="29.16" x2="248.89" y2="74.36" style="stroke:var(--viz-series-1);stroke-width:1.8;stroke-linejoin:round;stroke-linecap:round"/>
<line x1="248.89" y1="74.36" x2="221.38" y2="129.36" style="stroke:var(--viz-series-1);stroke-width:1.8;stroke-linejoin:round;stroke-linecap:round"/>
<line x1="221.38" y1="129.36" x2="131.15" y2="309.84" style="stroke:var(--viz-series-1);stroke-width:1.8;stroke-linejoin:round;stroke-linecap:round"/>
<line x1="131.15" y1="309.84" x2="121.48" y2="329.16" style="stroke:var(--viz-series-1);stroke-width:1.8;stroke-linejoin:round;stroke-linecap:round"/>
<line x1="242.34" y1="329.16" x2="252.01" y2="309.84" style="stroke:var(--viz-series-1);stroke-width:1.8;stroke-linejoin:round;stroke-linecap:round"/>
<line x1="252.01" y1="309.84" x2="342.25" y2="129.36" style="stroke:var(--viz-series-1);stroke-width:1.8;stroke-linejoin:round;stroke-linecap:round"/>
<line x1="131.15" y1="9.84" x2="121.48" y2="29.16" style="stroke:var(--viz-series-1);stroke-width:1.8;stroke-linejoin:round;stroke-linecap:round"/>
<line x1="121.48" y1="29.16" x2="98.89" y2="74.36" style="stroke:var(--viz-series-1);stroke-width:1.8;stroke-linejoin:round;stroke-linecap:round"/>
<line x1="98.89" y1="74.36" x2="219.75" y2="74.36" style="stroke:var(--viz-series-1);stroke-width:1.8;stroke-linejoin:round;stroke-linecap:round"/>
<line x1="219.75" y1="74.36" x2="242.34" y2="29.16" style="stroke:var(--viz-series-1);stroke-width:1.8;stroke-linejoin:round;stroke-linecap:round"/>
<line x1="242.34" y1="29.16" x2="252.01" y2="9.84" style="stroke:var(--viz-series-1);stroke-width:1.8;stroke-linejoin:round;stroke-linecap:round"/>
<line x1="98.89" y1="74.36" x2="71.38" y2="129.36" style="stroke:var(--viz-series-2);stroke-width:1.8;stroke-linejoin:round;stroke-linecap:round"/>
<line x1="71.38" y1="129.36" x2="42.25" y2="129.36" style="stroke:var(--viz-series-2);stroke-width:1.8;stroke-linejoin:round;stroke-linecap:round"/>
<line x1="42.25" y1="129.36" x2="-78.62" y2="129.36" style="stroke:var(--viz-series-2);stroke-width:1.8;stroke-linejoin:round;stroke-linecap:round"/>
<line x1="-51.11" y1="74.36" x2="69.75" y2="74.36" style="stroke:var(--viz-series-2);stroke-width:1.8;stroke-linejoin:round;stroke-linecap:round"/>
<line x1="69.75" y1="74.36" x2="98.89" y2="74.36" style="stroke:var(--viz-series-2);stroke-width:1.8;stroke-linejoin:round;stroke-linecap:round"/>
<line x1="342.25" y1="129.36" x2="221.38" y2="129.36" style="stroke:var(--viz-series-2);stroke-width:1.8;stroke-linejoin:round;stroke-linecap:round"/>
<line x1="221.38" y1="129.36" x2="192.25" y2="129.36" style="stroke:var(--viz-series-2);stroke-width:1.8;stroke-linejoin:round;stroke-linecap:round"/>
<line x1="192.25" y1="129.36" x2="219.75" y2="74.36" style="stroke:var(--viz-series-2);stroke-width:1.8;stroke-linejoin:round;stroke-linecap:round"/>
<line x1="219.75" y1="74.36" x2="248.89" y2="74.36" style="stroke:var(--viz-series-2);stroke-width:1.8;stroke-linejoin:round;stroke-linecap:round"/>
<line x1="248.89" y1="74.36" x2="369.75" y2="74.36" style="stroke:var(--viz-series-2);stroke-width:1.8;stroke-linejoin:round;stroke-linecap:round"/>
</g>
<circle cx="71.38" cy="129.36" r="3.05" style="fill:var(--foreground);stroke:var(--card);stroke-width:1.0"/>
<circle cx="92.34" cy="29.16" r="3.05" style="fill:var(--foreground);stroke:var(--card);stroke-width:1.0"/>
<circle cx="98.89" cy="74.36" r="3.05" style="fill:var(--foreground);stroke:var(--card);stroke-width:1.0"/>
<circle cx="192.25" cy="129.36" r="3.05" style="fill:var(--foreground);stroke:var(--card);stroke-width:1.0"/>
<circle cx="219.75" cy="74.36" r="3.05" style="fill:var(--foreground);stroke:var(--card);stroke-width:1.0"/>
<circle cx="281.15" cy="309.84" r="3.05" style="fill:var(--foreground);stroke:var(--card);stroke-width:1.0"/>
</svg>
