<?xml version="1.0" encoding="UTF-8"?>
<svg xmlns="http://www.w3.org/2000/svg"
     viewBox="0 0 328.0 328.0"
     width="328.0" height="328.0"
     role="img" aria-labelledby="title description">
  <title id="title">polygon-49478b3e4c, genus 0, all-disk ruling 0xca2c2</title>
  <desc id="description">Newton polygon vertices [[0, 2], [1, 0], [4, 0], [1, 2]]; 4 disk eyes and 8 switches.</desc>
  <metadata>{&quot;polygon_id&quot;:&quot;polygon-49478b3e4c&quot;,&quot;vertices&quot;:[[0,2],[1,0],[4,0],[1,2]],&quot;genus&quot;:0,&quot;sector&quot;:&quot;all-disk&quot;,&quot;mask&quot;:&quot;0xca2c2&quot;,&quot;disk_eyes&quot;:4,&quot;annular_eyes&quot;:0,&quot;switches&quot;:8,&quot;switch_profile&quot;:{&quot;A&quot;:2,&quot;B&quot;:2,&quot;V&quot;:4},&quot;sl2z&quot;:[[1,0],[0,1]],&quot;uses_tropical_count&quot;:false,&quot;coordinate_model&quot;:&quot;fixed catalog-frame fundamental square shared by every ruling of this polygon&quot;}</metadata>
  <style>
    svg {
      --card: #ffffff;
      --foreground: #111827;
      --viz-series-1: #2563eb;
      --viz-series-2: #ef4444;
      --viz-series-3: #16a34a;
    }
    .o4-diagram-bg { fill: var(--card); }
  </style>
<defs><clipPath id="one-polygon-49478b3e4c-0-ca2c2"><rect x="14.0" y="14.0" width="300.0" height="300.0"/></clipPath><clipPath id="one-polygon-49478b3e4c-0-ca2c2-boundary"><rect x="12.8" y="12.8" width="302.4" height="302.4"/></clipPath></defs>
<rect class="o4-diagram-bg" x="0" y="0" width="328.0" height="328.0"/>
<g clip-path="url(#one-polygon-49478b3e4c-0-ca2c2)">
<polygon points="125.94,407.06 84.24,379.26 45.67,353.54 -5.62,319.35 -95.71,319.35 -155.62,319.35 -245.71,319.35 -305.62,319.35 -313.65,314.00 -440.76,229.26 -398.39,314.00 -395.71,319.35 -378.62,353.54 -254.33,353.54 -228.62,353.54 -104.33,353.54 -78.62,353.54 -65.76,379.26 -51.86,407.06 -24.06,407.06 98.14,407.06" style="fill:var(--viz-series-1);fill-opacity:.30;stroke:none"/>
<polygon points="125.94,107.06 84.24,79.26 45.67,53.54 -5.62,19.35 -95.71,19.35 -155.62,19.35 -245.71,19.35 -305.62,19.35 -313.65,14.00 -440.76,-70.74 -398.39,14.00 -395.71,19.35 -378.62,53.54 -254.33,53.54 -228.62,53.54 -104.33,53.54 -78.62,53.54 -65.76,79.26 -51.86,107.06 -24.06,107.06 98.14,107.06" style="fill:var(--viz-series-1);fill-opacity:.30;stroke:none"/>
<polygon points="425.94,407.06 384.24,379.26 345.67,353.54 294.38,319.35 204.29,319.35 144.38,319.35 54.29,319.35 -5.62,319.35 -13.65,314.00 -140.76,229.26 -98.39,314.00 -95.71,319.35 -78.62,353.54 45.67,353.54 71.38,353.54 195.67,353.54 221.38,353.54 234.24,379.26 248.14,407.06 275.94,407.06 398.14,407.06" style="fill:var(--viz-series-1);fill-opacity:.30;stroke:none"/>
<polygon points="425.94,107.06 384.24,79.26 345.67,53.54 294.38,19.35 204.29,19.35 144.38,19.35 54.29,19.35 -5.62,19.35 -13.65,14.00 -140.76,-70.74 -98.39,14.00 -95.71,19.35 -78.62,53.54 45.67,53.54 71.38,53.54 195.67,53.54 221.38,53.54 234.24,79.26 248.14,107.06 275.94,107.06 398.14,107.06" style="fill:var(--viz-series-1);fill-opacity:.30;stroke:none"/>
<polygon points="725.94,407.06 684.24,379.26 645.67,353.54 594.38,319.35 504.29,319.35 444.38,319.35 354.29,319.35 294.38,319.35 286.35,314.00 159.24,229.26 201.61,314.00 204.29,319.35 221.38,353.54 345.67,353.54 371.38,353.54 495.67,353.54 521.38,353.54 534.24,379.26 548.14,407.06 575.94,407.06 698.14,407.06" style="fill:var(--viz-series-1);fill-opacity:.30;stroke:none"/>
<polygon points="725.94,107.06 684.24,79.26 645.67,53.54 594.38,19.35 504.29,19.35 444.38,19.35 354.29,19.35 294.38,19.35 286.35,14.00 159.24,-70.74 201.61,14.00 204.29,19.35 221.38,53.54 345.67,53.54 371.38,53.54 495.67,53.54 521.38,53.54 534.24,79.26 548.14,107.06 575.94,107.06 698.14,107.06" style="fill:var(--viz-series-1);fill-opacity:.30;stroke:none"/>
<polygon points="84.24,379.26 71.38,353.54 54.29,319.35 51.61,314.00 -13.65,314.00 -98.39,314.00 -163.65,314.00 -155.62,319.35 -104.33,353.54 -65.76,379.26 -24.06,407.06 159.24,529.26 98.14,407.06" style="fill:var(--viz-series-2);fill-opacity:.30;stroke:none"/>
<polygon points="84.24,79.26 71.38,53.54 54.29,19.35 51.61,14.00 -13.65,14.00 -98.39,14.00 -163.65,14.00 -155.62,19.35 -104.33,53.54 -65.76,79.26 -24.06,107.06 159.24,229.26 98.14,107.06" style="fill:var(--viz-series-2);fill-opacity:.30;stroke:none"/>
<polygon points="384.24,379.26 371.38,353.54 354.29,319.35 351.61,314.00 286.35,314.00 201.61,314.00 136.35,314.00 144.38,319.35 195.67,353.54 234.24,379.26 275.94,407.06 459.24,529.26 398.14,407.06" style="fill:var(--viz-series-2);fill-opacity:.30;stroke:none"/>
<polygon points="384.24,79.26 371.38,53.54 354.29,19.35 351.61,14.00 286.35,14.00 201.61,14.00 136.35,14.00 144.38,19.35 195.67,53.54 234.24,79.26 275.94,107.06 459.24,229.26 398.14,107.06" style="fill:var(--viz-series-2);fill-opacity:.30;stroke:none"/>
<polygon points="125.94,107.06 309.24,229.26 248.14,107.06" style="fill:var(--viz-series-2);fill-opacity:.30;stroke:none"/>
<polygon points="136.35,314.00 9.24,229.26 51.61,314.00" style="fill:var(--viz-series-1);fill-opacity:.30;stroke:none"/>
<polygon points="136.35,14.00 9.24,-70.74 51.61,14.00" style="fill:var(--viz-series-1);fill-opacity:.30;stroke:none"/>
<polygon points="436.35,314.00 309.24,229.26 351.61,314.00" style="fill:var(--viz-series-1);fill-opacity:.30;stroke:none"/>
<polygon points="436.35,14.00 309.24,-70.74 351.61,14.00" style="fill:var(--viz-series-1);fill-opacity:.30;stroke:none"/>
</g>
<rect x="14.0" y="14.0" width="300.0" height="300.0" style="fill:none;stroke:var(--viz-series-3);stroke-width:1.8"/>
<g clip-path="url(#one-polygon-49478b3e4c-0-ca2c2-boundary)">
<line x1="125.94" y1="107.06" x2="84.24" y2="79.26" style="stroke:var(--viz-series-1);stroke-width:1.8;stroke-linejoin:round;stroke-linecap:round"/>
<line x1="84.24" y1="79.26" x2="45.67" y2="53.54" style="stroke:var(--viz-series-1);stroke-width:1.8;stroke-linejoin:round;stroke-linecap:round"/>
<line x1="45.67" y1="53.54" x2="-5.62" y2="19.35" style="stroke:var(--viz-series-1);stroke-width:1.8;stroke-linejoin:round;stroke-linecap:round"/>
<line x1="-24.06" y1="107.06" x2="98.14" y2="107.06" style="stroke:var(--viz-series-1);stroke-width:1.8;stroke-linejoin:round;stroke-linecap:round"/>
<line x1="98.14" y1="107.06" x2="125.94" y2="107.06" style="stroke:var(--viz-series-1);stroke-width:1.8;stroke-linejoin:round;stroke-linecap:round"/>
<line x1="345.67" y1="53.54" x2="294.38" y2="19.35" style="stroke:var(--viz-series-1);stroke-width:1.8;stroke-linejoin:round;stroke-linecap:round"/>
<line x1="294.38" y1="19.35" x2="204.29" y2="19.35" style="stroke:var(--viz-series-1);stroke-width:1.8;stroke-linejoin:round;stroke-linecap:round"/>
<line x1="204.29" y1="19.35" x2="144.38" y2="19.35" style="stroke:var(--viz-series-1);stroke-width:1.8;stroke-linejoin:round;stroke-linecap:round"/>
<line x1="144.38" y1="19.35" x2="54.29" y2="19.35" style="stroke:var(--viz-series-1);stroke-width:1.8;stroke-linejoin:round;stroke-linecap:round"/>
<line x1="54.29" y1="19.35" x2="-5.62" y2="19.35" style="stroke:var(--viz-series-1);stroke-width:1.8;stroke-linejoin:round;stroke-linecap:round"/>
<line x1="-78.62" y1="53.54" x2="45.67" y2="53.54" style="stroke:var(--viz-series-1);stroke-width:1.8;stroke-linejoin:round;stroke-linecap:round"/>
<line x1="45.67" y1="53.54" x2="71.38" y2="53.54" style="stroke:var(--viz-series-1);stroke-width:1.8;stroke-linejoin:round;stroke-linecap:round"/>
<line x1="71.38" y1="53.54" x2="195.67" y2="53.54" style="stroke:var(--viz-series-1);stroke-width:1.8;stroke-linejoin:round;stroke-linecap:round"/>
<line x1="195.67" y1="53.54" x2="221.38" y2="53.54" style="stroke:var(--viz-series-1);stroke-width:1.8;stroke-linejoin:round;stroke-linecap:round"/>
<line x1="221.38" y1="53.54" x2="234.24" y2="79.26" style="stroke:var(--viz-series-1);stroke-width:1.8;stroke-linejoin:round;stroke-linecap:round"/>
<line x1="234.24" y1="79.26" x2="248.14" y2="107.06" style="stroke:var(--viz-series-1);stroke-width:1.8;stroke-linejoin:round;stroke-linecap:round"/>
<line x1="248.14" y1="107.06" x2="275.94" y2="107.06" style="stroke:var(--viz-series-1);stroke-width:1.8;stroke-linejoin:round;stroke-linecap:round"/>
<line x1="275.94" y1="107.06" x2="398.14" y2="107.06" style="stroke:var(--viz-series-1);stroke-width:1.8;stroke-linejoin:round;stroke-linecap:round"/>
<line x1="294.38" y1="319.35" x2="286.35" y2="314.00" style="stroke:var(--viz-series-1);stroke-width:1.8;stroke-linejoin:round;stroke-linecap:round"/>
<line x1="286.35" y1="314.00" x2="159.24" y2="229.26" style="stroke:var(--viz-series-1);stroke-width:1.8;stroke-linejoin:round;stroke-linecap:round"/>
<line x1="159.24" y1="229.26" x2="201.61" y2="314.00" style="stroke:var(--viz-series-1);stroke-width:1.8;stroke-linejoin:round;stroke-linecap:round"/>
<line x1="201.61" y1="314.00" x2="204.29" y2="319.35" style="stroke:var(--viz-series-1);stroke-width:1.8;stroke-linejoin:round;stroke-linecap:round"/>
<line x1="354.29" y1="19.35" x2="294.38" y2="19.35" style="stroke:var(--viz-series-1);stroke-width:1.8;stroke-linejoin:round;stroke-linecap:round"/>
<line x1="294.38" y1="19.35" x2="286.35" y2="14.00" style="stroke:var(--viz-series-1);stroke-width:1.8;stroke-linejoin:round;stroke-linecap:round"/>
<line x1="286.35" y1="14.00" x2="159.24" y2="-70.74" style="stroke:var(--viz-series-1);stroke-width:1.8;stroke-linejoin:round;stroke-linecap:round"/>
<line x1="159.24" y1="-70.74" x2="201.61" y2="14.00" style="stroke:var(--viz-series-1);stroke-width:1.8;stroke-linejoin:round;stroke-linecap:round"/>
<line x1="201.61" y1="14.00" x2="204.29" y2="19.35" style="stroke:var(--viz-series-1);stroke-width:1.8;stroke-linejoin:round;stroke-linecap:round"/>
<line x1="204.29" y1="19.35" x2="221.38" y2="53.54" style="stroke:var(--viz-series-1);stroke-width:1.8;stroke-linejoin:round;stroke-linecap:round"/>
<line x1="221.38" y1="53.54" x2="345.67" y2="53.54" style="stroke:var(--viz-series-1);stroke-width:1.8;stroke-linejoin:round;stroke-linecap:round"/>
<line x1="54.29" y1="319.35" x2="51.61" y2="314.00" style="stroke:var(--viz-series-2);stroke-width:1.8;stroke-linejoin:round;stroke-linecap:round"/>
<line x1="84.24" y1="79.26" x2="71.38" y2="53.54" style="stroke:var(--viz-series-2);stroke-width:1.8;stroke-linejoin:round;stroke-linecap:round"/>
<line x1="71.38" y1="53.54" x2="54.29" y2="19.35" style="stroke:var(--viz-series-2);stroke-width:1.8;stroke-linejoin:round;stroke-linecap:round"/>
<line x1="54.29" y1="19.35" x2="51.61" y2="14.00" style="stroke:var(--viz-series-2);stroke-width:1.8;stroke-linejoin:round;stroke-linecap:round"/>
<line x1="51.61" y1="14.00" x2="-13.65" y2="14.00" style="stroke:var(--viz-series-2);stroke-width:1.8;stroke-linejoin:round;stroke-linecap:round"/>
<line x1="-24.06" y1="107.06" x2="159.24" y2="229.26" style="stroke:var(--viz-series-2);stroke-width:1.8;stroke-linejoin:round;stroke-linecap:round"/>
<line x1="159.24" y1="229.26" x2="98.14" y2="107.06" style="stroke:var(--viz-series-2);stroke-width:1.8;stroke-linejoin:round;stroke-linecap:round"/>
<line x1="98.14" y1="107.06" x2="84.24" y2="79.26" style="stroke:var(--viz-series-2);stroke-width:1.8;stroke-linejoin:round;stroke-linecap:round"/>
<line x1="136.35" y1="314.00" x2="144.38" y2="319.35" style="stroke:var(--viz-series-2);stroke-width:1.8;stroke-linejoin:round;stroke-linecap:round"/>
<line x1="351.61" y1="14.00" x2="286.35" y2="14.00" style="stroke:var(--viz-series-2);stroke-width:1.8;stroke-linejoin:round;stroke-linecap:round"/>
<line x1="286.35" y1="14.00" x2="201.61" y2="14.00" style="stroke:var(--viz-series-2);stroke-width:1.8;stroke-linejoin:round;stroke-linecap:round"/>
<line x1="201.61" y1="14.00" x2="136.35" y2="14.00" style="stroke:var(--viz-series-2);stroke-width:1.8;stroke-linejoin:round;stroke-linecap:round"/>
<line x1="136.35" y1="14.00" x2="144.38" y2="19.35" style="stroke:var(--viz-series-2);stroke-width:1.8;stroke-linejoin:round;stroke-linecap:round"/>
<line x1="144.38" y1="19.35" x2="195.67" y2="53.54" style="stroke:var(--viz-series-2);stroke-width:1.8;stroke-linejoin:round;stroke-linecap:round"/>
<line x1="195.67" y1="53.54" x2="234.24" y2="79.26" style="stroke:var(--viz-series-2);stroke-width:1.8;stroke-linejoin:round;stroke-linecap:round"/>
<line x1="234.24" y1="79.26" x2="275.94" y2="107.06" style="stroke:var(--viz-series-2);stroke-width:1.8;stroke-linejoin:round;stroke-linecap:round"/>
<line x1="275.94" y1="107.06" x2="459.24" y2="229.26" style="stroke:var(--viz-series-2);stroke-width:1.8;stroke-linejoin:round;stroke-linecap:round"/>
<line x1="125.94" y1="107.06" x2="309.24" y2="229.26" style="stroke:var(--viz-series-2);stroke-width:1.8;stroke-linejoin:round;stroke-linecap:round"/>
<line x1="309.24" y1="229.26" x2="248.14" y2="107.06" style="stroke:var(--viz-series-2);stroke-width:1.8;stroke-linejoin:round;stroke-linecap:round"/>
<line x1="248.14" y1="107.06" x2="125.94" y2="107.06" style="stroke:var(--viz-series-2);stroke-width:1.8;stroke-linejoin:round;stroke-linecap:round"/>
<line x1="136.35" y1="314.00" x2="9.24" y2="229.26" style="stroke:var(--viz-series-1);stroke-width:1.8;stroke-linejoin:round;stroke-linecap:round"/>
<line x1="9.24" y1="229.26" x2="51.61" y2="314.00" style="stroke:var(--viz-series-1);stroke-width:1.8;stroke-linejoin:round;stroke-linecap:round"/>
<line x1="51.61" y1="314.00" x2="136.35" y2="314.00" style="stroke:var(--viz-series-1);stroke-width:1.8;stroke-linejoin:round;stroke-linecap:round"/>
<line x1="136.35" y1="14.00" x2="9.24" y2="-70.74" style="stroke:var(--viz-series-1);stroke-width:1.8;stroke-linejoin:round;stroke-linecap:round"/>
<line x1="9.24" y1="-70.74" x2="51.61" y2="14.00" style="stroke:var(--viz-series-1);stroke-width:1.8;stroke-linejoin:round;stroke-linecap:round"/>
<line x1="436.35" y1="314.00" x2="309.24" y2="229.26" style="stroke:var(--viz-series-1);stroke-width:1.8;stroke-linejoin:round;stroke-linecap:round"/>
<line x1="309.24" y1="229.26" x2="351.61" y2="314.00" style="stroke:var(--viz-series-1);stroke-width:1.8;stroke-linejoin:round;stroke-linecap:round"/>
<line x1="436.35" y1="14.00" x2="309.24" y2="-70.74" style="stroke:var(--viz-series-1);stroke-width:1.8;stroke-linejoin:round;stroke-linecap:round"/>
<line x1="309.24" y1="-70.74" x2="351.61" y2="14.00" style="stroke:var(--viz-series-1);stroke-width:1.8;stroke-linejoin:round;stroke-linecap:round"/>
</g>
<circle cx="51.61" cy="314.00" r="3.05" style="fill:var(--foreground);stroke:var(--card);stroke-width:1.0"/>
<circle cx="51.61" cy="14.00" r="3.05" style="fill:var(--foreground);stroke:var(--card);stroke-width:1.0"/>
<circle cx="125.94" cy="107.06" r="3.05" style="fill:var(--foreground);stroke:var(--card);stroke-width:1.0"/>
<circle cx="136.35" cy="314.00" r="3.05" style="fill:var(--foreground);stroke:var(--card);stroke-width:1.0"/>
<circle cx="136.35" cy="14.00" r="3.05" style="fill:var(--foreground);stroke:var(--card);stroke-width:1.0"/>
<circle cx="159.24" cy="229.26" r="3.05" style="fill:var(--foreground);stroke:var(--card);stroke-width:1.0"/>
<circle cx="221.38" cy="53.54" r="3.05" style="fill:var(--foreground);stroke:var(--card);stroke-width:1.0"/>
<circle cx="248.14" cy="107.06" r="3.05" style="fill:var(--foreground);stroke:var(--card);stroke-width:1.0"/>
<circle cx="294.38" cy="19.35" r="3.05" style="fill:var(--foreground);stroke:var(--card);stroke-width:1.0"/>
<circle cx="309.24" cy="229.26" r="3.05" style="fill:var(--foreground);stroke:var(--card);stroke-width:1.0"/>
</svg>
