<?xml version="1.0" encoding="UTF-8"?>
<svg xmlns="http://www.w3.org/2000/svg"
     viewBox="0 0 328.0 328.0"
     width="328.0" height="328.0"
     role="img" aria-labelledby="title description">
  <title id="title">polygon-7a691b36ff, genus 0, annular ruling 0x048fe4c7, witness 1</title>
  <desc id="description">Newton polygon vertices [[0, 0], [5, 0], [3, 2], [1, 1]]; 8 disk eyes, 2 annular eyes, and 15 switches.</desc>
  <metadata>{&quot;polygon_id&quot;:&quot;polygon-7a691b36ff&quot;,&quot;vertices&quot;:[[0,0],[5,0],[3,2],[1,1]],&quot;genus&quot;:0,&quot;sector&quot;:&quot;annular&quot;,&quot;mask&quot;:&quot;0x048fe4c7&quot;,&quot;witness&quot;:1,&quot;disk_eyes&quot;:8,&quot;annular_eyes&quot;:2,&quot;switches&quot;:15,&quot;switch_profile&quot;:{&quot;A&quot;:5,&quot;B&quot;:2,&quot;V&quot;:8},&quot;sl2z&quot;:[[1,0],[0,1]],&quot;uses_tropical_count&quot;:false,&quot;coordinate_model&quot;:&quot;fixed fundamental square with per-annular-eye lifted determinant-one normalization mapped back&quot;,&quot;essential_homologies&quot;:[[-1,0],[-1,0]],&quot;annular_eye_transforms&quot;:[{&quot;pair&quot;:[5,8],&quot;color&quot;:&quot;red&quot;,&quot;essential_homology&quot;:[-1,0],&quot;display_homology&quot;:[-1,0],&quot;phase_shift&quot;:[0,0],&quot;horizontal_phase_shift&quot;:[0,0],&quot;to_horizontal_determinant_one&quot;:[[-1,0],[0,-1]]},{&quot;pair&quot;:[10,7],&quot;color&quot;:&quot;blue&quot;,&quot;essential_homology&quot;:[-1,0],&quot;display_homology&quot;:[-1,0],&quot;phase_shift&quot;:[0,0],&quot;horizontal_phase_shift&quot;:[0,0],&quot;to_horizontal_determinant_one&quot;:[[-1,0],[0,-1]]}]}</metadata>
  <style>
    svg {
      --card: #ffffff;
      --foreground: #111827;
      --viz-series-1: #2563eb;
      --viz-series-2: #ef4444;
      --viz-series-3: #16a34a;
    }
    .o4-diagram-bg { fill: var(--card); }
  </style>
<defs><clipPath id="one-polygon-7a691b36ff-ann-48fe4c7-1"><rect x="14.0" y="14.0" width="300.0" height="300.0"/></clipPath><clipPath id="one-polygon-7a691b36ff-ann-48fe4c7-1-boundary"><rect x="12.8" y="12.8" width="302.4" height="302.4"/></clipPath></defs>
<rect class="o4-diagram-bg" x="0" y="0" width="328.0" height="328.0"/>
<g clip-path="url(#one-polygon-7a691b36ff-ann-48fe4c7-1)">
<polygon points="156.12,314.00 61.37,361.37 14.00,314.00" style="fill:var(--viz-series-2);fill-opacity:.30;stroke:none"/>
<polygon points="156.12,14.00 61.37,61.37 14.00,14.00" style="fill:var(--viz-series-2);fill-opacity:.30;stroke:none"/>
<polygon points="456.12,314.00 361.37,361.37 314.00,314.00" style="fill:var(--viz-series-2);fill-opacity:.30;stroke:none"/>
<polygon points="456.12,14.00 361.37,61.37 314.00,14.00" style="fill:var(--viz-series-2);fill-opacity:.30;stroke:none"/>
<polygon points="-38.63,261.37 -121.28,302.70 -132.58,314.00 14.00,314.00" style="fill:var(--viz-series-1);fill-opacity:.30;stroke:none"/>
<polygon points="-38.63,-38.63 -121.28,2.70 -132.58,14.00 14.00,14.00" style="fill:var(--viz-series-1);fill-opacity:.30;stroke:none"/>
<polygon points="261.37,261.37 178.72,302.70 167.42,314.00 314.00,314.00" style="fill:var(--viz-series-1);fill-opacity:.30;stroke:none"/>
<polygon points="261.37,-38.63 178.72,2.70 167.42,14.00 314.00,14.00" style="fill:var(--viz-series-1);fill-opacity:.30;stroke:none"/>
<polygon points="167.42,314.00 165.71,315.71 164.00,314.00" style="fill:var(--viz-series-2);fill-opacity:.30;stroke:none"/>
<polygon points="167.42,14.00 165.71,15.71 164.00,14.00" style="fill:var(--viz-series-2);fill-opacity:.30;stroke:none"/>
<polygon points="161.37,311.37 156.12,314.00 164.00,314.00" style="fill:var(--viz-series-1);fill-opacity:.30;stroke:none"/>
<polygon points="161.37,11.37 156.12,14.00 164.00,14.00" style="fill:var(--viz-series-1);fill-opacity:.30;stroke:none"/>
<polygon points="-23.88,254.00 104.00,254.00 61.37,211.37 44.00,194.00 15.71,165.71 -12.58,194.00 -59.29,240.71 -72.58,254.00 -46.00,254.00" style="fill:var(--viz-series-1);fill-opacity:.30;stroke:none"/>
<polygon points="276.12,254.00 404.00,254.00 361.37,211.37 344.00,194.00 315.71,165.71 287.42,194.00 240.71,240.71 227.42,254.00 254.00,254.00" style="fill:var(--viz-series-1);fill-opacity:.30;stroke:none"/>
<polygon points="227.42,254.00 178.72,302.70 161.37,311.37 104.00,254.00" style="fill:var(--viz-series-2);fill-opacity:.30;stroke:none"/>
<polygon points="-209.29,90.71 -226.00,74.00 -192.58,74.00 -76.00,74.00 36.12,74.00 -38.63,111.37 -83.88,134.00 -138.63,161.37 -166.00,134.00" style="fill:var(--viz-series-2);fill-opacity:.30;stroke:none"/>
<polygon points="90.71,90.71 74.00,74.00 107.42,74.00 224.00,74.00 336.12,74.00 261.37,111.37 216.12,134.00 161.37,161.37 134.00,134.00" style="fill:var(--viz-series-2);fill-opacity:.30;stroke:none"/>
<polygon points="61.37,61.37 36.12,74.00 74.00,74.00" style="fill:var(--viz-series-1);fill-opacity:.30;stroke:none"/>
<polygon points="304.62,134.00 284.00,134.00 216.12,134.00 134.00,134.00 47.42,134.00 4.62,134.00 4.62,239.75 61.37,211.37 96.12,194.00 161.37,161.37 194.00,194.00 240.71,240.71 254.00,254.00 261.37,261.37 276.12,254.00 304.62,239.75" style="fill:var(--viz-series-2);fill-opacity:.30;stroke:none"/>
<polygon points="604.62,134.00 584.00,134.00 516.12,134.00 434.00,134.00 347.42,134.00 304.62,134.00 304.62,239.75 361.37,211.37 396.12,194.00 461.37,161.37 494.00,194.00 540.71,240.71 554.00,254.00 561.37,261.37 576.12,254.00 604.62,239.75" style="fill:var(--viz-series-2);fill-opacity:.30;stroke:none"/>
<polygon points="304.62,154.62 284.00,134.00 261.37,111.37 224.00,74.00 165.71,15.71 107.42,74.00 90.71,90.71 47.42,134.00 15.71,165.71 4.62,154.62 4.62,194.00 44.00,194.00 96.12,194.00 194.00,194.00 287.42,194.00 304.62,194.00" style="fill:var(--viz-series-1);fill-opacity:.30;stroke:none"/>
<polygon points="604.62,154.62 584.00,134.00 561.37,111.37 524.00,74.00 465.71,15.71 407.42,74.00 390.71,90.71 347.42,134.00 315.71,165.71 304.62,154.62 304.62,194.00 344.00,194.00 396.12,194.00 494.00,194.00 587.42,194.00 604.62,194.00" style="fill:var(--viz-series-1);fill-opacity:.30;stroke:none"/>
</g>
<rect x="14.0" y="14.0" width="300.0" height="300.0" style="fill:none;stroke:var(--viz-series-3);stroke-width:1.8"/>
<g clip-path="url(#one-polygon-7a691b36ff-ann-48fe4c7-1-boundary)">
<line x1="156.12" y1="314.00" x2="61.37" y2="361.37" style="stroke:var(--viz-series-2);stroke-width:1.8;stroke-linejoin:round;stroke-linecap:round"/>
<line x1="61.37" y1="361.37" x2="14.00" y2="314.00" style="stroke:var(--viz-series-2);stroke-width:1.8;stroke-linejoin:round;stroke-linecap:round"/>
<line x1="156.12" y1="14.00" x2="61.37" y2="61.37" style="stroke:var(--viz-series-2);stroke-width:1.8;stroke-linejoin:round;stroke-linecap:round"/>
<line x1="61.37" y1="61.37" x2="14.00" y2="14.00" style="stroke:var(--viz-series-2);stroke-width:1.8;stroke-linejoin:round;stroke-linecap:round"/>
<line x1="14.00" y1="14.00" x2="156.12" y2="14.00" style="stroke:var(--viz-series-2);stroke-width:1.8;stroke-linejoin:round;stroke-linecap:round"/>
<line x1="361.37" y1="361.37" x2="314.00" y2="314.00" style="stroke:var(--viz-series-2);stroke-width:1.8;stroke-linejoin:round;stroke-linecap:round"/>
<line x1="361.37" y1="61.37" x2="314.00" y2="14.00" style="stroke:var(--viz-series-2);stroke-width:1.8;stroke-linejoin:round;stroke-linecap:round"/>
<line x1="14.00" y1="314.00" x2="-38.63" y2="261.37" style="stroke:var(--viz-series-1);stroke-width:1.8;stroke-linejoin:round;stroke-linecap:round"/>
<line x1="14.00" y1="14.00" x2="-38.63" y2="-38.63" style="stroke:var(--viz-series-1);stroke-width:1.8;stroke-linejoin:round;stroke-linecap:round"/>
<line x1="261.37" y1="261.37" x2="178.72" y2="302.70" style="stroke:var(--viz-series-1);stroke-width:1.8;stroke-linejoin:round;stroke-linecap:round"/>
<line x1="178.72" y1="302.70" x2="167.42" y2="314.00" style="stroke:var(--viz-series-1);stroke-width:1.8;stroke-linejoin:round;stroke-linecap:round"/>
<line x1="167.42" y1="314.00" x2="314.00" y2="314.00" style="stroke:var(--viz-series-1);stroke-width:1.8;stroke-linejoin:round;stroke-linecap:round"/>
<line x1="314.00" y1="314.00" x2="261.37" y2="261.37" style="stroke:var(--viz-series-1);stroke-width:1.8;stroke-linejoin:round;stroke-linecap:round"/>
<line x1="178.72" y1="2.70" x2="167.42" y2="14.00" style="stroke:var(--viz-series-1);stroke-width:1.8;stroke-linejoin:round;stroke-linecap:round"/>
<line x1="314.00" y1="14.00" x2="261.37" y2="-38.63" style="stroke:var(--viz-series-1);stroke-width:1.8;stroke-linejoin:round;stroke-linecap:round"/>
<line x1="167.42" y1="314.00" x2="165.71" y2="315.71" style="stroke:var(--viz-series-2);stroke-width:1.8;stroke-linejoin:round;stroke-linecap:round"/>
<line x1="165.71" y1="315.71" x2="164.00" y2="314.00" style="stroke:var(--viz-series-2);stroke-width:1.8;stroke-linejoin:round;stroke-linecap:round"/>
<line x1="167.42" y1="14.00" x2="165.71" y2="15.71" style="stroke:var(--viz-series-2);stroke-width:1.8;stroke-linejoin:round;stroke-linecap:round"/>
<line x1="165.71" y1="15.71" x2="164.00" y2="14.00" style="stroke:var(--viz-series-2);stroke-width:1.8;stroke-linejoin:round;stroke-linecap:round"/>
<line x1="164.00" y1="14.00" x2="167.42" y2="14.00" style="stroke:var(--viz-series-2);stroke-width:1.8;stroke-linejoin:round;stroke-linecap:round"/>
<line x1="161.37" y1="311.37" x2="156.12" y2="314.00" style="stroke:var(--viz-series-1);stroke-width:1.8;stroke-linejoin:round;stroke-linecap:round"/>
<line x1="156.12" y1="314.00" x2="164.00" y2="314.00" style="stroke:var(--viz-series-1);stroke-width:1.8;stroke-linejoin:round;stroke-linecap:round"/>
<line x1="164.00" y1="314.00" x2="161.37" y2="311.37" style="stroke:var(--viz-series-1);stroke-width:1.8;stroke-linejoin:round;stroke-linecap:round"/>
<line x1="161.37" y1="11.37" x2="156.12" y2="14.00" style="stroke:var(--viz-series-1);stroke-width:1.8;stroke-linejoin:round;stroke-linecap:round"/>
<line x1="164.00" y1="14.00" x2="161.37" y2="11.37" style="stroke:var(--viz-series-1);stroke-width:1.8;stroke-linejoin:round;stroke-linecap:round"/>
<line x1="-23.88" y1="254.00" x2="104.00" y2="254.00" style="stroke:var(--viz-series-1);stroke-width:1.8;stroke-linejoin:round;stroke-linecap:round"/>
<line x1="104.00" y1="254.00" x2="61.37" y2="211.37" style="stroke:var(--viz-series-1);stroke-width:1.8;stroke-linejoin:round;stroke-linecap:round"/>
<line x1="61.37" y1="211.37" x2="44.00" y2="194.00" style="stroke:var(--viz-series-1);stroke-width:1.8;stroke-linejoin:round;stroke-linecap:round"/>
<line x1="44.00" y1="194.00" x2="15.71" y2="165.71" style="stroke:var(--viz-series-1);stroke-width:1.8;stroke-linejoin:round;stroke-linecap:round"/>
<line x1="15.71" y1="165.71" x2="-12.58" y2="194.00" style="stroke:var(--viz-series-1);stroke-width:1.8;stroke-linejoin:round;stroke-linecap:round"/>
<line x1="276.12" y1="254.00" x2="404.00" y2="254.00" style="stroke:var(--viz-series-1);stroke-width:1.8;stroke-linejoin:round;stroke-linecap:round"/>
<line x1="315.71" y1="165.71" x2="287.42" y2="194.00" style="stroke:var(--viz-series-1);stroke-width:1.8;stroke-linejoin:round;stroke-linecap:round"/>
<line x1="287.42" y1="194.00" x2="240.71" y2="240.71" style="stroke:var(--viz-series-1);stroke-width:1.8;stroke-linejoin:round;stroke-linecap:round"/>
<line x1="240.71" y1="240.71" x2="227.42" y2="254.00" style="stroke:var(--viz-series-1);stroke-width:1.8;stroke-linejoin:round;stroke-linecap:round"/>
<line x1="227.42" y1="254.00" x2="254.00" y2="254.00" style="stroke:var(--viz-series-1);stroke-width:1.8;stroke-linejoin:round;stroke-linecap:round"/>
<line x1="254.00" y1="254.00" x2="276.12" y2="254.00" style="stroke:var(--viz-series-1);stroke-width:1.8;stroke-linejoin:round;stroke-linecap:round"/>
<line x1="227.42" y1="254.00" x2="178.72" y2="302.70" style="stroke:var(--viz-series-2);stroke-width:1.8;stroke-linejoin:round;stroke-linecap:round"/>
<line x1="178.72" y1="302.70" x2="161.37" y2="311.37" style="stroke:var(--viz-series-2);stroke-width:1.8;stroke-linejoin:round;stroke-linecap:round"/>
<line x1="161.37" y1="311.37" x2="104.00" y2="254.00" style="stroke:var(--viz-series-2);stroke-width:1.8;stroke-linejoin:round;stroke-linecap:round"/>
<line x1="104.00" y1="254.00" x2="227.42" y2="254.00" style="stroke:var(--viz-series-2);stroke-width:1.8;stroke-linejoin:round;stroke-linecap:round"/>
<line x1="-76.00" y1="74.00" x2="36.12" y2="74.00" style="stroke:var(--viz-series-2);stroke-width:1.8;stroke-linejoin:round;stroke-linecap:round"/>
<line x1="36.12" y1="74.00" x2="-38.63" y2="111.37" style="stroke:var(--viz-series-2);stroke-width:1.8;stroke-linejoin:round;stroke-linecap:round"/>
<line x1="90.71" y1="90.71" x2="74.00" y2="74.00" style="stroke:var(--viz-series-2);stroke-width:1.8;stroke-linejoin:round;stroke-linecap:round"/>
<line x1="74.00" y1="74.00" x2="107.42" y2="74.00" style="stroke:var(--viz-series-2);stroke-width:1.8;stroke-linejoin:round;stroke-linecap:round"/>
<line x1="107.42" y1="74.00" x2="224.00" y2="74.00" style="stroke:var(--viz-series-2);stroke-width:1.8;stroke-linejoin:round;stroke-linecap:round"/>
<line x1="224.00" y1="74.00" x2="336.12" y2="74.00" style="stroke:var(--viz-series-2);stroke-width:1.8;stroke-linejoin:round;stroke-linecap:round"/>
<line x1="336.12" y1="74.00" x2="261.37" y2="111.37" style="stroke:var(--viz-series-2);stroke-width:1.8;stroke-linejoin:round;stroke-linecap:round"/>
<line x1="261.37" y1="111.37" x2="216.12" y2="134.00" style="stroke:var(--viz-series-2);stroke-width:1.8;stroke-linejoin:round;stroke-linecap:round"/>
<line x1="216.12" y1="134.00" x2="161.37" y2="161.37" style="stroke:var(--viz-series-2);stroke-width:1.8;stroke-linejoin:round;stroke-linecap:round"/>
<line x1="161.37" y1="161.37" x2="134.00" y2="134.00" style="stroke:var(--viz-series-2);stroke-width:1.8;stroke-linejoin:round;stroke-linecap:round"/>
<line x1="134.00" y1="134.00" x2="90.71" y2="90.71" style="stroke:var(--viz-series-2);stroke-width:1.8;stroke-linejoin:round;stroke-linecap:round"/>
<line x1="61.37" y1="61.37" x2="36.12" y2="74.00" style="stroke:var(--viz-series-1);stroke-width:1.8;stroke-linejoin:round;stroke-linecap:round"/>
<line x1="36.12" y1="74.00" x2="74.00" y2="74.00" style="stroke:var(--viz-series-1);stroke-width:1.8;stroke-linejoin:round;stroke-linecap:round"/>
<line x1="74.00" y1="74.00" x2="61.37" y2="61.37" style="stroke:var(--viz-series-1);stroke-width:1.8;stroke-linejoin:round;stroke-linecap:round"/>
</g>
<g clip-path="url(#one-polygon-7a691b36ff-ann-48fe4c7-1-boundary)">
<line x1="304.62" y1="134.00" x2="284.00" y2="134.00" style="stroke:var(--viz-series-2);stroke-width:1.8;stroke-linejoin:round;stroke-linecap:round"/>
<line x1="284.00" y1="134.00" x2="216.12" y2="134.00" style="stroke:var(--viz-series-2);stroke-width:1.8;stroke-linejoin:round;stroke-linecap:round"/>
<line x1="216.12" y1="134.00" x2="134.00" y2="134.00" style="stroke:var(--viz-series-2);stroke-width:1.8;stroke-linejoin:round;stroke-linecap:round"/>
<line x1="134.00" y1="134.00" x2="47.42" y2="134.00" style="stroke:var(--viz-series-2);stroke-width:1.8;stroke-linejoin:round;stroke-linecap:round"/>
<line x1="47.42" y1="134.00" x2="4.62" y2="134.00" style="stroke:var(--viz-series-2);stroke-width:1.8;stroke-linejoin:round;stroke-linecap:round"/>
<line x1="347.42" y1="134.00" x2="304.62" y2="134.00" style="stroke:var(--viz-series-2);stroke-width:1.8;stroke-linejoin:round;stroke-linecap:round"/>
<line x1="304.62" y1="239.75" x2="276.12" y2="254.00" style="stroke:var(--viz-series-2);stroke-width:1.8;stroke-linejoin:round;stroke-linecap:round"/>
<line x1="276.12" y1="254.00" x2="261.37" y2="261.37" style="stroke:var(--viz-series-2);stroke-width:1.8;stroke-linejoin:round;stroke-linecap:round"/>
<line x1="261.37" y1="261.37" x2="254.00" y2="254.00" style="stroke:var(--viz-series-2);stroke-width:1.8;stroke-linejoin:round;stroke-linecap:round"/>
<line x1="254.00" y1="254.00" x2="240.71" y2="240.71" style="stroke:var(--viz-series-2);stroke-width:1.8;stroke-linejoin:round;stroke-linecap:round"/>
<line x1="240.71" y1="240.71" x2="194.00" y2="194.00" style="stroke:var(--viz-series-2);stroke-width:1.8;stroke-linejoin:round;stroke-linecap:round"/>
<line x1="194.00" y1="194.00" x2="161.37" y2="161.37" style="stroke:var(--viz-series-2);stroke-width:1.8;stroke-linejoin:round;stroke-linecap:round"/>
<line x1="161.37" y1="161.37" x2="96.12" y2="194.00" style="stroke:var(--viz-series-2);stroke-width:1.8;stroke-linejoin:round;stroke-linecap:round"/>
<line x1="96.12" y1="194.00" x2="61.37" y2="211.37" style="stroke:var(--viz-series-2);stroke-width:1.8;stroke-linejoin:round;stroke-linecap:round"/>
<line x1="61.37" y1="211.37" x2="4.62" y2="239.75" style="stroke:var(--viz-series-2);stroke-width:1.8;stroke-linejoin:round;stroke-linecap:round"/>
<line x1="361.37" y1="211.37" x2="304.62" y2="239.75" style="stroke:var(--viz-series-2);stroke-width:1.8;stroke-linejoin:round;stroke-linecap:round"/>
<line x1="304.62" y1="154.62" x2="284.00" y2="134.00" style="stroke:var(--viz-series-1);stroke-width:1.8;stroke-linejoin:round;stroke-linecap:round"/>
<line x1="284.00" y1="134.00" x2="261.37" y2="111.37" style="stroke:var(--viz-series-1);stroke-width:1.8;stroke-linejoin:round;stroke-linecap:round"/>
<line x1="261.37" y1="111.37" x2="224.00" y2="74.00" style="stroke:var(--viz-series-1);stroke-width:1.8;stroke-linejoin:round;stroke-linecap:round"/>
<line x1="224.00" y1="74.00" x2="165.71" y2="15.71" style="stroke:var(--viz-series-1);stroke-width:1.8;stroke-linejoin:round;stroke-linecap:round"/>
<line x1="165.71" y1="15.71" x2="107.42" y2="74.00" style="stroke:var(--viz-series-1);stroke-width:1.8;stroke-linejoin:round;stroke-linecap:round"/>
<line x1="107.42" y1="74.00" x2="90.71" y2="90.71" style="stroke:var(--viz-series-1);stroke-width:1.8;stroke-linejoin:round;stroke-linecap:round"/>
<line x1="90.71" y1="90.71" x2="47.42" y2="134.00" style="stroke:var(--viz-series-1);stroke-width:1.8;stroke-linejoin:round;stroke-linecap:round"/>
<line x1="47.42" y1="134.00" x2="15.71" y2="165.71" style="stroke:var(--viz-series-1);stroke-width:1.8;stroke-linejoin:round;stroke-linecap:round"/>
<line x1="15.71" y1="165.71" x2="4.62" y2="154.62" style="stroke:var(--viz-series-1);stroke-width:1.8;stroke-linejoin:round;stroke-linecap:round"/>
<line x1="315.71" y1="165.71" x2="304.62" y2="154.62" style="stroke:var(--viz-series-1);stroke-width:1.8;stroke-linejoin:round;stroke-linecap:round"/>
<line x1="304.62" y1="194.00" x2="287.42" y2="194.00" style="stroke:var(--viz-series-1);stroke-width:1.8;stroke-linejoin:round;stroke-linecap:round"/>
<line x1="287.42" y1="194.00" x2="194.00" y2="194.00" style="stroke:var(--viz-series-1);stroke-width:1.8;stroke-linejoin:round;stroke-linecap:round"/>
<line x1="194.00" y1="194.00" x2="96.12" y2="194.00" style="stroke:var(--viz-series-1);stroke-width:1.8;stroke-linejoin:round;stroke-linecap:round"/>
<line x1="96.12" y1="194.00" x2="44.00" y2="194.00" style="stroke:var(--viz-series-1);stroke-width:1.8;stroke-linejoin:round;stroke-linecap:round"/>
<line x1="44.00" y1="194.00" x2="4.62" y2="194.00" style="stroke:var(--viz-series-1);stroke-width:1.8;stroke-linejoin:round;stroke-linecap:round"/>
<line x1="344.00" y1="194.00" x2="304.62" y2="194.00" style="stroke:var(--viz-series-1);stroke-width:1.8;stroke-linejoin:round;stroke-linecap:round"/>
</g>
<circle cx="14.00" cy="314.00" r="3.05" style="fill:var(--foreground);stroke:var(--card);stroke-width:1.0"/>
<circle cx="14.00" cy="14.00" r="3.05" style="fill:var(--foreground);stroke:var(--card);stroke-width:1.0"/>
<circle cx="314.00" cy="314.00" r="3.05" style="fill:var(--foreground);stroke:var(--card);stroke-width:1.0"/>
<circle cx="314.00" cy="14.00" r="3.05" style="fill:var(--foreground);stroke:var(--card);stroke-width:1.0"/>
<circle cx="15.71" cy="165.71" r="3.05" style="fill:var(--foreground);stroke:var(--card);stroke-width:1.0"/>
<circle cx="36.12" cy="74.00" r="3.05" style="fill:var(--foreground);stroke:var(--card);stroke-width:1.0"/>
<circle cx="61.37" cy="61.37" r="3.05" style="fill:var(--foreground);stroke:var(--card);stroke-width:1.0"/>
<circle cx="74.00" cy="74.00" r="3.05" style="fill:var(--foreground);stroke:var(--card);stroke-width:1.0"/>
<circle cx="104.00" cy="254.00" r="3.05" style="fill:var(--foreground);stroke:var(--card);stroke-width:1.0"/>
<circle cx="156.12" cy="314.00" r="3.05" style="fill:var(--foreground);stroke:var(--card);stroke-width:1.0"/>
<circle cx="156.12" cy="14.00" r="3.05" style="fill:var(--foreground);stroke:var(--card);stroke-width:1.0"/>
<circle cx="161.37" cy="311.37" r="3.05" style="fill:var(--foreground);stroke:var(--card);stroke-width:1.0"/>
<circle cx="161.37" cy="161.37" r="3.05" style="fill:var(--foreground);stroke:var(--card);stroke-width:1.0"/>
<circle cx="164.00" cy="314.00" r="3.05" style="fill:var(--foreground);stroke:var(--card);stroke-width:1.0"/>
<circle cx="164.00" cy="14.00" r="3.05" style="fill:var(--foreground);stroke:var(--card);stroke-width:1.0"/>
<circle cx="165.71" cy="15.71" r="3.05" style="fill:var(--foreground);stroke:var(--card);stroke-width:1.0"/>
<circle cx="167.42" cy="314.00" r="3.05" style="fill:var(--foreground);stroke:var(--card);stroke-width:1.0"/>
<circle cx="167.42" cy="14.00" r="3.05" style="fill:var(--foreground);stroke:var(--card);stroke-width:1.0"/>
<circle cx="178.72" cy="302.70" r="3.05" style="fill:var(--foreground);stroke:var(--card);stroke-width:1.0"/>
<circle cx="227.42" cy="254.00" r="3.05" style="fill:var(--foreground);stroke:var(--card);stroke-width:1.0"/>
<circle cx="261.37" cy="261.37" r="3.05" style="fill:var(--foreground);stroke:var(--card);stroke-width:1.0"/>
</svg>
