<?xml version="1.0" encoding="UTF-8"?>
<svg xmlns="http://www.w3.org/2000/svg"
     viewBox="0 0 328.0 328.0"
     width="328.0" height="328.0"
     role="img" aria-labelledby="title description">
  <title id="title">polygon-9d5da6549a, genus 1, all-disk ruling 0x3fb1c</title>
  <desc id="description">Newton polygon vertices [[0, 0], [2, 0], [3, 1], [2, 2], [0, 1]]; 6 disk eyes and 12 switches.</desc>
  <metadata>{&quot;polygon_id&quot;:&quot;polygon-9d5da6549a&quot;,&quot;vertices&quot;:[[0,0],[2,0],[3,1],[2,2],[0,1]],&quot;genus&quot;:1,&quot;sector&quot;:&quot;all-disk&quot;,&quot;mask&quot;:&quot;0x3fb1c&quot;,&quot;disk_eyes&quot;:6,&quot;annular_eyes&quot;:0,&quot;switches&quot;:12,&quot;switch_profile&quot;:{&quot;A&quot;:4,&quot;B&quot;:2,&quot;V&quot;:6},&quot;sl2z&quot;:[[1,0],[0,1]],&quot;uses_tropical_count&quot;:false,&quot;coordinate_model&quot;:&quot;fixed count-frame fundamental square shared by every ruling of this polygon&quot;}</metadata>
  <style>
    svg {
      --card: #ffffff;
      --foreground: #111827;
      --viz-series-1: #2563eb;
      --viz-series-2: #ef4444;
      --viz-series-3: #16a34a;
    }
    .o4-diagram-bg { fill: var(--card); }
  </style>
<defs><clipPath id="one-polygon-9d5da6549a-1-3fb1c"><rect x="14.0" y="14.0" width="300.0" height="300.0"/></clipPath><clipPath id="one-polygon-9d5da6549a-1-3fb1c-boundary"><rect x="12.8" y="12.8" width="302.4" height="302.4"/></clipPath></defs>
<rect class="o4-diagram-bg" x="0" y="0" width="328.0" height="328.0"/>
<g clip-path="url(#one-polygon-9d5da6549a-1-3fb1c)">
<polygon points="107.95,51.17 122.23,36.89 227.78,36.89 170.69,51.17 87.04,72.08 -312.96,172.08 -293.58,152.70 11.03,51.17" style="fill:var(--viz-series-2);fill-opacity:.30;stroke:none"/>
<polygon points="407.95,51.17 422.23,36.89 527.78,36.89 470.69,51.17 387.04,72.08 -12.96,172.08 6.42,152.70 311.03,51.17" style="fill:var(--viz-series-2);fill-opacity:.30;stroke:none"/>
<polygon points="707.95,51.17 722.23,36.89 827.78,36.89 770.69,51.17 687.04,72.08 287.04,172.08 306.42,152.70 611.03,51.17" style="fill:var(--viz-series-2);fill-opacity:.30;stroke:none"/>
<polygon points="-246.16,336.89 -143.58,302.70 132.04,210.83 -112.96,272.08 -352.60,331.99 -362.41,336.89 -390.96,351.17 -288.97,351.17" style="fill:var(--viz-series-1);fill-opacity:.30;stroke:none"/>
<polygon points="-246.16,36.89 -143.58,2.70 132.04,-89.17 -112.96,-27.92 -352.60,31.99 -362.41,36.89 -390.96,51.17 -288.97,51.17" style="fill:var(--viz-series-1);fill-opacity:.30;stroke:none"/>
<polygon points="53.84,336.89 156.42,302.70 432.04,210.83 187.04,272.08 -52.60,331.99 -62.41,336.89 -90.96,351.17 11.03,351.17" style="fill:var(--viz-series-1);fill-opacity:.30;stroke:none"/>
<polygon points="53.84,36.89 156.42,2.70 432.04,-89.17 187.04,-27.92 -52.60,31.99 -62.41,36.89 -90.96,51.17 11.03,51.17" style="fill:var(--viz-series-1);fill-opacity:.30;stroke:none"/>
<polygon points="353.84,336.89 456.42,302.70 732.04,210.83 487.04,272.08 247.40,331.99 237.59,336.89 209.04,351.17 311.03,351.17" style="fill:var(--viz-series-1);fill-opacity:.30;stroke:none"/>
<polygon points="353.84,36.89 456.42,2.70 732.04,-89.17 487.04,-27.92 247.40,31.99 237.59,36.89 209.04,51.17 311.03,51.17" style="fill:var(--viz-series-1);fill-opacity:.30;stroke:none"/>
<polygon points="170.69,51.17 209.04,51.17 6.86,152.26 87.04,72.08 107.95,51.17" style="fill:var(--viz-series-2);fill-opacity:.30;stroke:none"/>
<polygon points="470.69,51.17 509.04,51.17 306.86,152.26 387.04,72.08 407.95,51.17" style="fill:var(--viz-series-2);fill-opacity:.30;stroke:none"/>
<polygon points="122.23,336.89 156.42,302.70 187.04,272.08 287.04,172.08 247.40,181.99 -52.60,331.99 -72.22,336.89 -62.41,336.89 53.84,336.89" style="fill:var(--viz-series-1);fill-opacity:.30;stroke:none"/>
<polygon points="122.23,36.89 156.42,2.70 187.04,-27.92 287.04,-127.92 247.40,-118.01 -52.60,31.99 -72.22,36.89 -62.41,36.89 53.84,36.89" style="fill:var(--viz-series-1);fill-opacity:.30;stroke:none"/>
<polygon points="422.23,336.89 456.42,302.70 487.04,272.08 587.04,172.08 547.40,181.99 247.40,331.99 227.78,336.89 237.59,336.89 353.84,336.89" style="fill:var(--viz-series-1);fill-opacity:.30;stroke:none"/>
<polygon points="422.23,36.89 456.42,2.70 487.04,-27.92 587.04,-127.92 547.40,-118.01 247.40,31.99 227.78,36.89 237.59,36.89 353.84,36.89" style="fill:var(--viz-series-1);fill-opacity:.30;stroke:none"/>
<polygon points="306.86,152.26 305.08,153.15 306.42,152.70" style="fill:var(--viz-series-1);fill-opacity:.30;stroke:none"/>
<polygon points="247.40,181.99 305.08,153.15 132.04,210.83" style="fill:var(--viz-series-2);fill-opacity:.30;stroke:none"/>
</g>
<rect x="14.0" y="14.0" width="300.0" height="300.0" style="fill:none;stroke:var(--viz-series-3);stroke-width:1.8"/>
<g clip-path="url(#one-polygon-9d5da6549a-1-3fb1c-boundary)">
<line x1="107.95" y1="51.17" x2="122.23" y2="36.89" style="stroke:var(--viz-series-2);stroke-width:1.8;stroke-linejoin:round;stroke-linecap:round"/>
<line x1="122.23" y1="36.89" x2="227.78" y2="36.89" style="stroke:var(--viz-series-2);stroke-width:1.8;stroke-linejoin:round;stroke-linecap:round"/>
<line x1="227.78" y1="36.89" x2="170.69" y2="51.17" style="stroke:var(--viz-series-2);stroke-width:1.8;stroke-linejoin:round;stroke-linecap:round"/>
<line x1="170.69" y1="51.17" x2="87.04" y2="72.08" style="stroke:var(--viz-series-2);stroke-width:1.8;stroke-linejoin:round;stroke-linecap:round"/>
<line x1="87.04" y1="72.08" x2="-312.96" y2="172.08" style="stroke:var(--viz-series-2);stroke-width:1.8;stroke-linejoin:round;stroke-linecap:round"/>
<line x1="11.03" y1="51.17" x2="107.95" y2="51.17" style="stroke:var(--viz-series-2);stroke-width:1.8;stroke-linejoin:round;stroke-linecap:round"/>
<line x1="387.04" y1="72.08" x2="-12.96" y2="172.08" style="stroke:var(--viz-series-2);stroke-width:1.8;stroke-linejoin:round;stroke-linecap:round"/>
<line x1="6.42" y1="152.70" x2="311.03" y2="51.17" style="stroke:var(--viz-series-2);stroke-width:1.8;stroke-linejoin:round;stroke-linecap:round"/>
<line x1="311.03" y1="51.17" x2="407.95" y2="51.17" style="stroke:var(--viz-series-2);stroke-width:1.8;stroke-linejoin:round;stroke-linecap:round"/>
<line x1="687.04" y1="72.08" x2="287.04" y2="172.08" style="stroke:var(--viz-series-2);stroke-width:1.8;stroke-linejoin:round;stroke-linecap:round"/>
<line x1="287.04" y1="172.08" x2="306.42" y2="152.70" style="stroke:var(--viz-series-2);stroke-width:1.8;stroke-linejoin:round;stroke-linecap:round"/>
<line x1="306.42" y1="152.70" x2="611.03" y2="51.17" style="stroke:var(--viz-series-2);stroke-width:1.8;stroke-linejoin:round;stroke-linecap:round"/>
<line x1="-143.58" y1="302.70" x2="132.04" y2="210.83" style="stroke:var(--viz-series-1);stroke-width:1.8;stroke-linejoin:round;stroke-linecap:round"/>
<line x1="132.04" y1="210.83" x2="-112.96" y2="272.08" style="stroke:var(--viz-series-1);stroke-width:1.8;stroke-linejoin:round;stroke-linecap:round"/>
<line x1="53.84" y1="336.89" x2="156.42" y2="302.70" style="stroke:var(--viz-series-1);stroke-width:1.8;stroke-linejoin:round;stroke-linecap:round"/>
<line x1="156.42" y1="302.70" x2="432.04" y2="210.83" style="stroke:var(--viz-series-1);stroke-width:1.8;stroke-linejoin:round;stroke-linecap:round"/>
<line x1="432.04" y1="210.83" x2="187.04" y2="272.08" style="stroke:var(--viz-series-1);stroke-width:1.8;stroke-linejoin:round;stroke-linecap:round"/>
<line x1="187.04" y1="272.08" x2="-52.60" y2="331.99" style="stroke:var(--viz-series-1);stroke-width:1.8;stroke-linejoin:round;stroke-linecap:round"/>
<line x1="53.84" y1="36.89" x2="156.42" y2="2.70" style="stroke:var(--viz-series-1);stroke-width:1.8;stroke-linejoin:round;stroke-linecap:round"/>
<line x1="187.04" y1="-27.92" x2="-52.60" y2="31.99" style="stroke:var(--viz-series-1);stroke-width:1.8;stroke-linejoin:round;stroke-linecap:round"/>
<line x1="11.03" y1="51.17" x2="53.84" y2="36.89" style="stroke:var(--viz-series-1);stroke-width:1.8;stroke-linejoin:round;stroke-linecap:round"/>
<line x1="487.04" y1="272.08" x2="247.40" y2="331.99" style="stroke:var(--viz-series-1);stroke-width:1.8;stroke-linejoin:round;stroke-linecap:round"/>
<line x1="487.04" y1="-27.92" x2="247.40" y2="31.99" style="stroke:var(--viz-series-1);stroke-width:1.8;stroke-linejoin:round;stroke-linecap:round"/>
<line x1="247.40" y1="31.99" x2="237.59" y2="36.89" style="stroke:var(--viz-series-1);stroke-width:1.8;stroke-linejoin:round;stroke-linecap:round"/>
<line x1="237.59" y1="36.89" x2="209.04" y2="51.17" style="stroke:var(--viz-series-1);stroke-width:1.8;stroke-linejoin:round;stroke-linecap:round"/>
<line x1="209.04" y1="51.17" x2="311.03" y2="51.17" style="stroke:var(--viz-series-1);stroke-width:1.8;stroke-linejoin:round;stroke-linecap:round"/>
<line x1="311.03" y1="51.17" x2="353.84" y2="36.89" style="stroke:var(--viz-series-1);stroke-width:1.8;stroke-linejoin:round;stroke-linecap:round"/>
<line x1="170.69" y1="51.17" x2="209.04" y2="51.17" style="stroke:var(--viz-series-2);stroke-width:1.8;stroke-linejoin:round;stroke-linecap:round"/>
<line x1="209.04" y1="51.17" x2="6.86" y2="152.26" style="stroke:var(--viz-series-2);stroke-width:1.8;stroke-linejoin:round;stroke-linecap:round"/>
<line x1="6.86" y1="152.26" x2="87.04" y2="72.08" style="stroke:var(--viz-series-2);stroke-width:1.8;stroke-linejoin:round;stroke-linecap:round"/>
<line x1="87.04" y1="72.08" x2="107.95" y2="51.17" style="stroke:var(--viz-series-2);stroke-width:1.8;stroke-linejoin:round;stroke-linecap:round"/>
<line x1="107.95" y1="51.17" x2="170.69" y2="51.17" style="stroke:var(--viz-series-2);stroke-width:1.8;stroke-linejoin:round;stroke-linecap:round"/>
<line x1="509.04" y1="51.17" x2="306.86" y2="152.26" style="stroke:var(--viz-series-2);stroke-width:1.8;stroke-linejoin:round;stroke-linecap:round"/>
<line x1="306.86" y1="152.26" x2="387.04" y2="72.08" style="stroke:var(--viz-series-2);stroke-width:1.8;stroke-linejoin:round;stroke-linecap:round"/>
<line x1="122.23" y1="336.89" x2="156.42" y2="302.70" style="stroke:var(--viz-series-1);stroke-width:1.8;stroke-linejoin:round;stroke-linecap:round"/>
<line x1="156.42" y1="302.70" x2="187.04" y2="272.08" style="stroke:var(--viz-series-1);stroke-width:1.8;stroke-linejoin:round;stroke-linecap:round"/>
<line x1="187.04" y1="272.08" x2="287.04" y2="172.08" style="stroke:var(--viz-series-1);stroke-width:1.8;stroke-linejoin:round;stroke-linecap:round"/>
<line x1="287.04" y1="172.08" x2="247.40" y2="181.99" style="stroke:var(--viz-series-1);stroke-width:1.8;stroke-linejoin:round;stroke-linecap:round"/>
<line x1="247.40" y1="181.99" x2="-52.60" y2="331.99" style="stroke:var(--viz-series-1);stroke-width:1.8;stroke-linejoin:round;stroke-linecap:round"/>
<line x1="122.23" y1="36.89" x2="156.42" y2="2.70" style="stroke:var(--viz-series-1);stroke-width:1.8;stroke-linejoin:round;stroke-linecap:round"/>
<line x1="247.40" y1="-118.01" x2="-52.60" y2="31.99" style="stroke:var(--viz-series-1);stroke-width:1.8;stroke-linejoin:round;stroke-linecap:round"/>
<line x1="-62.41" y1="36.89" x2="53.84" y2="36.89" style="stroke:var(--viz-series-1);stroke-width:1.8;stroke-linejoin:round;stroke-linecap:round"/>
<line x1="53.84" y1="36.89" x2="122.23" y2="36.89" style="stroke:var(--viz-series-1);stroke-width:1.8;stroke-linejoin:round;stroke-linecap:round"/>
<line x1="547.40" y1="181.99" x2="247.40" y2="331.99" style="stroke:var(--viz-series-1);stroke-width:1.8;stroke-linejoin:round;stroke-linecap:round"/>
<line x1="547.40" y1="-118.01" x2="247.40" y2="31.99" style="stroke:var(--viz-series-1);stroke-width:1.8;stroke-linejoin:round;stroke-linecap:round"/>
<line x1="247.40" y1="31.99" x2="227.78" y2="36.89" style="stroke:var(--viz-series-1);stroke-width:1.8;stroke-linejoin:round;stroke-linecap:round"/>
<line x1="227.78" y1="36.89" x2="237.59" y2="36.89" style="stroke:var(--viz-series-1);stroke-width:1.8;stroke-linejoin:round;stroke-linecap:round"/>
<line x1="237.59" y1="36.89" x2="353.84" y2="36.89" style="stroke:var(--viz-series-1);stroke-width:1.8;stroke-linejoin:round;stroke-linecap:round"/>
<line x1="306.86" y1="152.26" x2="305.08" y2="153.15" style="stroke:var(--viz-series-1);stroke-width:1.8;stroke-linejoin:round;stroke-linecap:round"/>
<line x1="305.08" y1="153.15" x2="306.42" y2="152.70" style="stroke:var(--viz-series-1);stroke-width:1.8;stroke-linejoin:round;stroke-linecap:round"/>
<line x1="306.42" y1="152.70" x2="306.86" y2="152.26" style="stroke:var(--viz-series-1);stroke-width:1.8;stroke-linejoin:round;stroke-linecap:round"/>
<line x1="247.40" y1="181.99" x2="305.08" y2="153.15" style="stroke:var(--viz-series-2);stroke-width:1.8;stroke-linejoin:round;stroke-linecap:round"/>
<line x1="305.08" y1="153.15" x2="132.04" y2="210.83" style="stroke:var(--viz-series-2);stroke-width:1.8;stroke-linejoin:round;stroke-linecap:round"/>
<line x1="132.04" y1="210.83" x2="247.40" y2="181.99" style="stroke:var(--viz-series-2);stroke-width:1.8;stroke-linejoin:round;stroke-linecap:round"/>
</g>
<circle cx="107.95" cy="51.17" r="3.05" style="fill:var(--foreground);stroke:var(--card);stroke-width:1.0"/>
<circle cx="122.23" cy="36.89" r="3.05" style="fill:var(--foreground);stroke:var(--card);stroke-width:1.0"/>
<circle cx="132.04" cy="210.83" r="3.05" style="fill:var(--foreground);stroke:var(--card);stroke-width:1.0"/>
<circle cx="209.04" cy="51.17" r="3.05" style="fill:var(--foreground);stroke:var(--card);stroke-width:1.0"/>
<circle cx="227.78" cy="36.89" r="3.05" style="fill:var(--foreground);stroke:var(--card);stroke-width:1.0"/>
<circle cx="247.40" cy="181.99" r="3.05" style="fill:var(--foreground);stroke:var(--card);stroke-width:1.0"/>
<circle cx="247.40" cy="31.99" r="3.05" style="fill:var(--foreground);stroke:var(--card);stroke-width:1.0"/>
<circle cx="287.04" cy="172.08" r="3.05" style="fill:var(--foreground);stroke:var(--card);stroke-width:1.0"/>
<circle cx="305.08" cy="153.15" r="3.05" style="fill:var(--foreground);stroke:var(--card);stroke-width:1.0"/>
<circle cx="306.42" cy="152.70" r="3.05" style="fill:var(--foreground);stroke:var(--card);stroke-width:1.0"/>
<circle cx="306.86" cy="152.26" r="3.05" style="fill:var(--foreground);stroke:var(--card);stroke-width:1.0"/>
<circle cx="311.03" cy="51.17" r="3.05" style="fill:var(--foreground);stroke:var(--card);stroke-width:1.0"/>
</svg>
